<?xml version="1.0" standalone="no"?>
<!DOCTYPE svg PUBLIC "-//W3C//DTD SVG 20010904//EN"
 "http://www.w3.org/TR/2001/REC-SVG-20010904/DTD/svg10.dtd">
<svg version="1.0" xmlns="http://www.w3.org/2000/svg"
 width="7806.000000pt" height="7805.000000pt" viewBox="0 0 7806.000000 7805.000000"
 preserveAspectRatio="xMidYMid meet">

<g transform="translate(0.000000,7805.000000) scale(0.100000,-0.100000)"
fill="#000000" stroke="none">
<path d="M0 59215 c0 -12550 3 -18835 10 -18835 6 0 10 30 10 69 l0 68 782
-389 c431 -214 820 -408 866 -429 46 -22 262 -129 480 -238 218 -109 407 -200
418 -203 12 -3 27 -2 33 1 12 8 -247 141 -1176 608 -293 148 -533 271 -533
276 0 4 4 7 9 7 5 0 479 -235 1053 -521 574 -287 1056 -525 1071 -530 25 -7
157 57 1079 517 578 288 1058 524 1066 524 10 0 12 -3 7 -9 -6 -5 -329 -170
-720 -367 -968 -488 -1017 -514 -979 -514 18 0 75 22 130 49 55 26 573 283
1151 570 579 286 1063 521 1075 521 20 0 -13 -24 -177 -129 -60 -39 -513 -268
-1512 -766 l-1022 -509 -4 -1276 c-4 -1307 -7 -1411 -43 -1451 -11 -13 -14
-38 -12 -106 l3 -89 210 102 c115 56 213 100 217 98 4 -3 8 -1 8 4 0 11 38 25
59 22 7 -1 10 3 7 8 -3 6 1 12 9 16 21 8 19 -8 -5 -29 -11 -10 -20 -14 -20
-10 0 4 -8 1 -17 -7 -10 -9 -122 -68 -249 -131 -209 -105 -234 -115 -265 -107
-44 10 -2979 1471 -3001 1494 -17 17 -18 -18 -18 -737 0 -592 3 -757 13 -764
6 -5 460 -231 1007 -503 547 -271 1114 -553 1260 -625 236 -117 330 -156 330
-135 0 7 -400 212 -1207 618 -282 141 -515 263 -518 271 -4 11 -1 10 13 -2 10
-9 21 -15 24 -12 3 3 471 -227 1039 -511 569 -284 1047 -520 1062 -525 25 -7
157 56 1079 517 577 288 1055 524 1062 523 31 -1 -102 -70 -1117 -581 -329
-166 -593 -304 -587 -308 16 -10 60 0 60 13 0 6 3 8 6 5 5 -6 334 156 1873
919 l664 329 -7 -740 c-3 -408 -7 -958 -7 -1224 0 -286 -4 -482 -10 -482 -12
0 -11 -37 1 -61 8 -14 7 -19 -2 -19 -8 0 -13 -13 -14 -32 -6 -278 -8 -315 -20
-315 -13 0 -26 74 -29 177 -2 36 -3 636 -4 1334 l-1 1268 -25 -16 c-78 -51
-330 -180 -1510 -772 l-1300 -652 -6 -1358 c-3 -748 -10 -1388 -14 -1424 -7
-55 -6 -63 6 -54 27 23 2545 1276 2569 1280 13 1 85 40 88 46 2 4 19 10 38 14
19 3 37 10 40 15 3 5 10 7 15 4 5 -4 22 3 38 14 15 11 31 18 34 15 11 -12 47
8 47 26 0 10 5 22 10 25 7 4 7 13 0 26 -7 12 -7 19 -1 19 17 0 24 -21 13 -43
-6 -12 -13 -30 -16 -39 -3 -10 -17 -20 -32 -24 -15 -4 -35 -15 -45 -25 -10
-10 -44 -30 -76 -46 -32 -15 -60 -30 -63 -33 -3 -3 -23 -14 -45 -24 -22 -10
-48 -26 -59 -35 -10 -9 -21 -15 -25 -14 -10 3 -81 -40 -81 -49 0 -5 -4 -6 -10
-3 -5 3 -11 -4 -11 -17 -1 -17 -3 -18 -6 -5 -3 10 -9 14 -16 10 -12 -8 -17 -9
-37 -12 -5 0 -10 -9 -10 -18 0 -15 1 -15 13 2 12 15 15 16 22 4 5 -8 5 -11 1
-7 -4 3 -16 -2 -27 -13 -16 -16 -23 -17 -40 -8 -17 9 -21 7 -26 -10 -3 -11
-15 -23 -27 -27 -11 -4 -23 -10 -26 -15 -3 -4 -525 -267 -1160 -583 -788 -391
-1163 -573 -1180 -571 -32 4 -2989 1475 -3013 1499 -16 17 -17 -18 -15 -741
l3 -758 25 -12 c14 -7 585 -291 1270 -631 685 -340 1257 -622 1272 -625 84
-21 -5 31 -370 217 -224 114 -611 310 -859 434 -412 207 -512 261 -420 230 17
-6 491 -241 1052 -521 561 -280 1033 -513 1048 -518 25 -7 158 57 1079 517
578 288 1054 524 1059 524 5 0 9 -4 9 -8 0 -4 -339 -178 -752 -387 -893 -450
-930 -469 -921 -480 5 -4 3 -5 -4 -2 -6 4 -19 4 -28 1 -27 -11 3 -23 34 -14
29 9 2529 1247 2549 1263 9 7 12 -291 12 -1484 0 -822 -4 -1499 -8 -1505 -4
-7 -678 -347 -1499 -758 -1133 -566 -1499 -745 -1520 -742 -34 5 -2991 1475
-3015 1500 -17 17 -18 -18 -18 -728 0 -610 2 -744 13 -740 7 2 204 -90 437
-206 234 -116 431 -208 438 -205 7 2 20 1 30 -4 9 -4 481 -239 1047 -521 567
-282 1043 -516 1058 -521 25 -7 147 51 1015 484 1133 565 1175 585 1156 556
-3 -5 -9 -7 -14 -4 -4 3 -10 1 -12 -3 -3 -9 -443 -234 -1203 -616 -362 -182
-511 -258 -520 -267 -3 -3 34 -3 68 0 5 1 6 5 2 10 -3 6 3 9 12 9 16 -1 2490
1221 2520 1245 10 7 13 -285 13 -1455 l0 -1465 734 -367 c403 -201 739 -366
745 -366 6 0 478 233 1049 518 1195 597 1423 705 1437 683 5 -8 -272 -156
-536 -287 -103 -51 -141 -81 -103 -81 7 0 12 5 11 11 -1 6 7 10 18 8 12 -1
168 70 349 159 289 142 365 174 330 139 -29 -29 -422 -231 -1402 -720 l-1092
-545 0 -737 0 -738 1475 -737 c1124 -562 1475 -742 1473 -754 -2 -10 -123 -77
-323 -179 -176 -90 -327 -169 -336 -176 -9 -8 -19 -11 -24 -7 -4 5 -5 0 -2 -9
5 -15 -172 -107 -1133 -585 l-1139 -568 0 -1100 c-1 -1016 -6 -1246 -22 -1095
-3 30 -6 -135 -7 -367 -2 -327 -5 -422 -15 -426 -14 -5 -3008 1489 -3019 1507
-4 6 -8 685 -8 1508 0 1190 3 1500 13 1509 7 6 674 343 1482 748 l1470 736 0
740 0 740 -740 369 -740 368 -1482 -741 c-816 -407 -1483 -736 -1483 -730 0 5
-4 8 -9 5 -5 -3 -689 333 -1520 747 l-1511 752 0 -12012 0 -12013 39030 0
39030 0 0 9763 0 9762 -1505 -752 -1505 -753 0 1295 c0 857 -3 1295 -10 1295
-7 0 -10 -313 -10 -919 0 -509 -4 -922 -9 -925 -4 -3 -11 15 -15 41 -3 25 -6
530 -6 1122 l0 1077 -977 486 c-1086 540 -1295 647 -1301 665 -2 7 389 -183
869 -422 918 -457 999 -496 1031 -487 14 3 -1 16 -64 49 -75 40 -1562 793
-1615 818 -23 10 -31 25 -13 25 5 0 482 -236 1061 -525 707 -354 1055 -523
1062 -516 14 11 1908 958 2017 1008 81 37 114 48 105 32 -4 -5 -10 -7 -15 -4
-4 3 -10 1 -12 -3 -1 -5 -331 -174 -733 -377 -1004 -506 -983 -495 -933 -495
29 0 2557 1252 2570 1273 4 6 8 347 8 757 0 410 -4 740 -8 734 -11 -17 -1451
-735 -1467 -732 -19 4 -1534 -753 -1537 -768 -2 -7 -654 314 -1483 728 l-1481
740 -739 -369 -740 -369 0 -739 0 -740 1470 -736 c808 -405 1475 -742 1482
-748 10 -9 13 -319 13 -1509 0 -823 -4 -1502 -8 -1508 -11 -18 -3005 -1512
-3019 -1507 -10 4 -13 99 -15 426 -1 232 -4 397 -7 367 -16 -151 -21 92 -22
1104 l-1 1091 -1138 568 c-708 353 -1141 574 -1145 585 -3 10 -142 86 -340
187 -218 110 -335 175 -335 185 0 10 481 255 1448 739 796 398 1459 732 1475
743 l27 20 0 721 c0 397 -4 727 -8 733 -4 6 -538 277 -1187 602 -1134 567
-1392 703 -1380 722 6 10 92 -29 400 -181 243 -120 344 -167 365 -170 39 -4
42 4 7 22 -21 11 -43 17 -49 13 -6 -4 -8 -3 -5 3 3 5 -20 22 -51 37 -188 91
-521 269 -517 276 15 24 150 -41 1473 -700 l1013 -505 739 370 740 370 0 1462
0 1461 1275 -634 c702 -348 1279 -633 1283 -632 4 1 16 -3 28 -9 16 -10 21 -9
21 2 0 14 -288 162 -1244 643 -260 130 -473 240 -473 245 0 4 4 7 9 7 5 0 483
-236 1061 -525 890 -445 1054 -523 1064 -511 19 25 2089 1052 2093 1039 2 -7
11 -9 19 -6 7 3 11 10 7 16 -3 5 -1 7 4 4 6 -4 198 85 426 197 412 203 437
212 437 168 0 -7 4 -10 10 -7 7 4 10 269 10 763 0 416 -4 752 -8 746 -11 -17
-1469 -744 -1476 -736 -10 10 -1526 -751 -1526 -765 0 -14 -3000 1481 -3012
1501 -4 6 -8 682 -8 1503 l0 1492 483 -241 c1300 -649 2052 -1018 2065 -1013
7 2 11 1 8 -4 -8 -12 18 -21 33 -12 16 11 -81 62 -924 486 -412 208 -752 380
-754 382 -2 1 -1 6 3 10 3 4 478 -228 1053 -516 634 -316 1049 -518 1051 -511
4 12 2075 1050 2095 1050 38 0 -91 -67 -1200 -625 -260 -130 -473 -242 -473
-247 0 -5 -4 -7 -9 -3 -5 3 -13 1 -16 -5 -4 -7 5 -10 24 -8 16 1 28 5 25 9 -2
4 4 7 13 7 16 -1 2491 1221 2521 1245 8 6 12 6 12 -2 0 -7 5 -9 10 -6 7 4 9
391 8 1133 -1 620 -4 1102 -8 1072 -4 -30 -7 -51 -8 -46 -4 20 -42 -29 -41
-53 0 -14 3 -20 6 -13 2 6 13 12 24 12 14 0 19 -7 18 -27 0 -25 -1 -26 -9 -8
-7 16 -9 17 -9 3 -1 -9 -5 -18 -9 -20 -5 -1 -12 -21 -15 -43 -5 -35 -4 -38 7
-23 16 22 36 23 36 3 0 -8 -4 -15 -10 -15 -5 0 -10 -12 -11 -27 0 -24 -2 -25
-8 -9 -13 34 -18 4 -20 -116 -1 -64 -6 -131 -11 -148 -5 -17 -5 -28 -1 -25 5
2 9 -13 9 -35 0 -22 -4 -43 -10 -46 -7 -5 -9 -1 -5 9 3 9 2 19 -4 22 -5 4 -9
12 -7 18 1 7 -2 37 -7 67 -12 76 -12 50 -13 1462 l-2 1267 -58 -34 c-128 -75
-316 -170 -1523 -775 l-1257 -629 -5 -1373 c-3 -755 -9 -1392 -12 -1415 -3
-24 -4 -43 -1 -43 3 0 578 286 1278 635 700 349 1278 635 1283 635 6 0 37 14
70 31 49 25 158 69 172 69 1 0 3 -7 3 -15 0 -8 -6 -15 -13 -15 -7 0 -23 -9
-35 -20 -12 -11 -26 -20 -31 -20 -6 0 -32 -14 -58 -30 -26 -17 -53 -30 -61
-30 -7 0 -10 -4 -7 -10 3 -5 0 -7 -8 -5 -18 8 -100 -53 -91 -67 4 -7 3 -8 -5
-4 -6 4 -9 12 -6 17 9 14 -1 11 -37 -11 -35 -21 -32 -27 5 -9 20 9 20 9 5 -4
-10 -8 -14 -17 -11 -21 4 -4 -4 -3 -19 3 -21 8 -26 7 -24 -5 1 -9 8 -19 14
-23 9 -5 4 -11 -13 -19 -20 -9 -25 -9 -25 3 0 9 6 12 18 8 13 -5 14 -3 5 7
-15 16 -33 4 -34 -23 0 -21 -1 -21 -9 -2 -5 11 -9 14 -9 8 -1 -7 -8 -13 -16
-13 -8 0 -15 -4 -15 -10 0 -5 8 -7 18 -4 9 3 4 -2 -12 -11 -16 -10 -35 -18
-41 -19 -7 -1 -19 -7 -26 -13 -28 -22 -760 -383 -777 -383 -34 0 -1532 -748
-1532 -765 0 -10 -469 220 -1502 736 -827 413 -1506 756 -1510 763 -4 6 -8
682 -8 1502 l0 1491 463 -229 c1603 -798 2073 -1028 2085 -1023 7 2 11 1 8 -4
-6 -9 44 -35 52 -26 16 15 -41 46 -923 490 -423 213 -776 392 -783 398 -18 14
-8 20 15 9 10 -5 485 -242 1057 -526 874 -435 1040 -515 1050 -502 10 13 1645
835 1963 987 92 43 145 64 149 57 4 -6 2 -8 -4 -4 -5 3 -12 2 -14 -3 -1 -5
-273 -145 -603 -311 -799 -403 -1108 -560 -1118 -570 -5 -4 7 -6 26 -4 33 4
306 138 1915 935 369 184 672 330 672 326 0 -5 5 -5 10 -2 7 4 10 690 9 2028
-1 1112 -5 2006 -9 1987 -4 -19 -8 -29 -9 -22 -1 11 -3 11 -14 0 -8 -7 -16
-20 -20 -28 -3 -8 -6 78 -6 193 -1 132 3 207 9 207 6 0 10 26 10 59 0 42 4 60
15 64 11 5 15 -7 18 -61 2 -37 4 8410 5 18771 l2 18837 -19497 -1 -19498 0
1498 -750 c1234 -617 1498 -753 1495 -768 -3 -17 -72 -55 -566 -306 -68 -34
-109 -61 -105 -68 4 -6 0 -8 -10 -4 -10 4 -16 2 -14 -6 1 -7 -474 -250 -1130
-577 l-1132 -565 -1 -1105 c-1 -608 -5 -1114 -9 -1125 -17 -42 -21 147 -21
953 0 731 -2 833 -15 838 -8 4 -15 15 -15 25 0 10 -4 19 -10 19 -7 0 -10 -310
-11 -907 0 -845 -5 -1026 -22 -899 -4 27 -7 533 -7 1125 l0 1076 -997 497
c-1122 559 -1279 639 -1276 653 1 6 -153 89 -343 185 -219 112 -344 180 -344
190 0 10 500 265 1503 767 l1502 752 -19517 0 -19518 1 0 -18835z m36039
15833 c823 -413 1499 -756 1503 -762 4 -6 8 -193 8 -416 0 -223 3 -887 7
-1476 l6 -1071 734 -366 c403 -202 740 -367 748 -367 8 0 346 165 750 367
l735 368 0 1475 c0 811 4 1480 8 1486 4 7 683 350 1509 763 l1503 751 1505
-752 c1153 -577 1505 -757 1503 -769 -2 -11 -121 -77 -323 -179 -176 -90 -326
-167 -332 -173 -7 -5 -10 -14 -6 -20 3 -6 1 -7 -5 -3 -7 4 -12 3 -12 -3 0 -5
-513 -265 -1139 -578 l-1140 -568 -1 -1100 c0 -1016 -5 -1246 -21 -1095 -3 30
-6 -135 -7 -366 -2 -329 -5 -423 -15 -427 -7 -2 -660 319 -1451 715 -792 396
-1457 726 -1478 735 l-39 15 -739 -368 -740 -369 -1 -1165 c-1 -641 -4 -1195
-8 -1233 -11 -117 -26 -77 -29 78 -2 115 -5 145 -16 145 -16 0 -29 27 -19 42
3 7 1 8 -5 4 -9 -5 -12 -72 -12 -229 0 -170 -3 -218 -12 -209 -6 6 -15 40 -19
74 -5 35 -8 609 -9 1276 l0 1212 -745 372 -744 373 -1477 -738 c-1160 -580
-1479 -736 -1490 -727 -17 15 -21 302 -32 1874 l-7 1110 -1121 560 c-617 309
-1132 572 -1145 584 -14 13 -175 100 -359 194 -215 109 -336 176 -338 186 -2
13 339 188 1500 769 827 414 1507 752 1512 752 5 1 682 -337 1505 -751z
m-4496 -2249 c826 -413 1505 -756 1509 -763 4 -6 8 -685 8 -1508 0 -1255 -2
-1499 -14 -1510 -7 -7 -684 -348 -1503 -757 -965 -482 -1496 -742 -1506 -738
-15 6 -17 45 -19 419 0 227 -4 393 -8 368 -4 -25 -9 -43 -11 -40 -2 3 -6 506
-9 1119 l-5 1114 -1128 564 c-891 446 -1127 568 -1123 580 5 13 4 14 -8 4 -11
-9 -16 -9 -22 0 -5 8 -2 10 7 5 8 -4 3 1 -10 11 -13 10 -169 92 -345 182 -203
103 -322 169 -324 180 -2 12 348 191 1500 768 827 414 1504 752 1506 752 1 1
678 -337 1505 -750z m18012 -1 c1156 -578 1505 -757 1503 -769 -2 -11 -125
-79 -338 -187 -194 -99 -336 -177 -338 -186 -2 -10 -453 -240 -1142 -583
l-1138 -568 -1 -1102 c-1 -606 -4 -1110 -8 -1120 -6 -13 -10 -6 -14 27 -3 25
-7 -141 -7 -368 -2 -374 -4 -413 -19 -419 -10 -4 -541 256 -1506 738 -819 409
-1496 750 -1503 757 -12 11 -14 255 -14 1510 0 823 4 1502 8 1508 5 9 2991
1510 3009 1513 2 1 680 -338 1508 -751z m-22510 -2250 c1447 -724 1505 -754
1511 -783 3 -16 3 -385 0 -820 -3 -434 -5 -958 -5 -1162 -1 -325 -3 -373 -16
-373 -9 0 -15 -9 -15 -25 0 -31 8 -32 20 -2 8 20 9 19 9 -10 1 -25 -3 -33 -16
-33 -10 0 -14 -4 -8 -8 22 -16 30 -95 12 -114 -13 -13 -16 -48 -18 -192 -2
-122 -6 -176 -13 -176 -30 0 -35 198 -36 1504 0 721 -3 1312 -6 1315 -3 3 -8
1 -12 -5 -15 -24 -476 -260 -1617 -831 -654 -327 -1193 -598 -1197 -601 -3 -4
-9 -623 -11 -1377 -3 -753 -9 -1389 -12 -1412 -3 -26 -2 -43 4 -43 5 0 47 20
93 44 189 98 2373 1188 2418 1206 19 7 69 30 111 50 107 53 178 75 192 61 8
-8 8 -11 -1 -11 -7 0 -13 1 -15 3 -2 1 -18 -10 -36 -25 -18 -16 -39 -28 -46
-28 -7 0 -20 -6 -27 -12 -7 -7 -40 -26 -73 -43 -33 -16 -61 -33 -63 -37 -2 -5
-10 -8 -18 -8 -9 0 -12 -5 -8 -12 4 -6 3 -8 -3 -5 -5 3 -23 -1 -39 -9 -16 -9
-31 -16 -34 -17 -3 0 -14 -9 -25 -20 l-20 -18 20 7 c20 7 20 6 1 -8 -11 -9
-28 -13 -39 -10 -15 4 -18 2 -12 -9 8 -12 6 -12 -8 0 -16 12 -17 12 -10 -5 6
-16 5 -17 -9 -6 -13 10 -18 10 -24 1 -5 -8 -3 -9 6 -4 8 5 11 3 8 -6 -4 -13
-10 -15 -50 -18 -10 0 -18 -8 -18 -16 0 -14 -12 -19 -32 -16 -5 0 -8 -2 -8 -7
0 -15 -2296 -1156 -2313 -1149 -15 6 -17 44 -18 404 -1 219 -4 386 -6 370 -2
-15 -9 -25 -14 -22 -5 4 -9 443 -10 1118 l-1 1112 -1140 568 c-868 433 -1138
572 -1134 583 3 8 2 13 -3 9 -5 -3 -11 -1 -13 3 -1 5 -151 84 -333 177 -207
105 -331 174 -333 184 -2 12 354 194 1500 768 827 414 1504 752 1506 752 1 1
680 -338 1507 -751z m27010 0 c1153 -577 1505 -757 1503 -769 -2 -11 -121 -77
-323 -179 -176 -90 -326 -167 -332 -173 -7 -5 -10 -13 -7 -18 5 -8 -3 -11 -22
-8 -4 0 -10 -5 -14 -12 -5 -6 -514 -265 -1132 -574 l-1123 -561 -5 -1115 c-3
-612 -7 -1116 -9 -1119 -2 -3 -7 15 -11 40 -4 25 -8 -141 -8 -368 -2 -374 -4
-413 -19 -419 -10 -4 -541 256 -1506 738 -819 409 -1496 750 -1503 757 -12 11
-14 255 -14 1510 0 823 4 1502 8 1508 5 9 2991 1510 3009 1513 2 1 680 -338
1508 -751z m-31510 -2250 l1505 -753 0 -262 c0 -144 -3 -268 -6 -277 -18 -48
-24 8 -24 234 0 138 -2 250 -5 250 -19 0 -192 -96 -189 -105 6 -15 -135 -105
-322 -205 -89 -47 -661 -335 -1273 -640 l-1111 -555 0 -1180 c0 -1284 -8
-1529 -49 -1543 -7 -2 -11 -42 -11 -103 l0 -99 52 26 c125 64 358 172 354 165
-3 -4 1 -8 8 -8 8 0 12 6 10 12 -3 6 7 17 22 24 24 10 26 10 20 -6 -5 -12 1
-10 16 7 13 14 30 25 38 25 8 -1 23 8 33 19 17 21 17 21 5 -7 -6 -16 -17 -26
-24 -23 -8 3 -20 -1 -28 -9 -20 -20 -106 -67 -106 -58 0 4 -4 3 -8 -3 -9 -14
-387 -204 -406 -204 -8 0 -17 7 -20 16 -3 9 -7 196 -8 417 0 221 -4 382 -7
357 -4 -33 -8 -40 -13 -27 -5 10 -8 514 -9 1120 l0 1102 -1130 563 c-621 309
-1129 567 -1129 573 0 6 -4 8 -9 5 -5 -3 -15 2 -22 11 -12 14 -12 16 1 8 10
-5 12 -5 5 2 -5 6 -158 86 -340 178 -211 107 -331 173 -333 184 -2 12 342 188
1500 768 827 414 1504 752 1506 752 1 1 680 -338 1507 -751z m36010 0 c1162
-581 1505 -757 1503 -770 -2 -10 -123 -77 -338 -186 -190 -97 -336 -177 -338
-186 -2 -9 -466 -246 -1142 -583 l-1139 -568 0 -1112 c-1 -681 -5 -1114 -10
-1118 -6 -3 -12 12 -14 32 -2 21 -4 -146 -5 -370 -2 -369 -4 -408 -19 -414
-10 -4 -541 256 -1506 738 -819 409 -1496 750 -1503 757 -12 11 -14 255 -14
1510 0 823 4 1502 8 1508 5 9 2991 1510 3009 1513 2 1 680 -338 1508 -751z
m-21262 -1415 c367 -183 669 -333 672 -333 2 0 140 -68 306 -150 213 -106 307
-149 321 -144 14 4 18 2 14 -5 -5 -7 -1 -9 9 -5 22 9 1 20 -925 486 -426 215
-777 393 -779 395 -2 1 -2 5 0 8 8 8 55 -15 1102 -537 559 -280 1024 -508
1032 -508 8 0 483 234 1056 520 572 286 1045 518 1050 514 5 -3 9 0 9 5 0 6 8
11 17 11 15 0 15 -2 -2 -13 -26 -18 -533 -276 -1120 -570 -585 -294 -609 -306
-572 -307 20 0 26 4 21 13 -6 9 -5 9 7 0 11 -9 159 61 729 344 393 195 744
368 780 385 36 17 199 97 362 179 163 82 300 144 303 139 15 -25 -183 -129
-1507 -792 l-1058 -529 0 -1112 c0 -1136 -7 -1430 -35 -1451 -12 -9 -15 -48
-16 -193 0 -101 -5 -185 -10 -189 -5 -3 -7 -9 -5 -13 3 -4 -5 -8 -17 -8 -16
-2 -18 0 -8 6 8 5 10 14 6 21 -5 9 -4 11 3 6 8 -5 10 -2 6 8 -3 9 -10 14 -14
11 -4 -3 -9 50 -9 116 -2 91 -6 125 -16 136 -8 8 -15 22 -15 31 0 9 -5 60 -10
112 -5 53 -10 626 -10 1305 l0 1210 -1183 592 c-651 325 -1212 608 -1248 629
-137 79 -239 146 -234 155 7 10 51 -12 988 -478z m-8773 -72 c0 -4 -6 -8 -13
-8 -8 0 -14 6 -14 13 0 7 6 10 14 7 7 -3 13 -8 13 -12z m-10475 -763 l1505
-753 0 -156 c0 -130 -3 -158 -15 -163 -13 -5 -15 14 -15 129 0 74 -2 135 -5
135 -19 0 -212 -106 -209 -114 12 -32 -254 -173 -1481 -788 l-1200 -601 -6
-1246 c-6 -1274 -10 -1421 -45 -1447 -11 -9 -14 -37 -14 -123 0 -61 2 -111 5
-111 3 0 64 29 135 65 72 36 130 62 130 58 0 -5 4 -2 9 5 6 11 10 10 15 -4 4
-10 4 -15 0 -11 -4 4 -22 -5 -41 -19 -18 -14 -33 -21 -33 -17 0 4 -4 3 -8 -3
-9 -14 -207 -114 -226 -114 -8 0 -17 7 -20 16 -3 9 -7 194 -8 412 -1 218 -3
380 -5 359 -2 -20 -8 -35 -14 -32 -5 4 -9 437 -10 1118 l0 1112 -1141 568
c-904 451 -1138 572 -1134 584 6 14 4 14 -11 2 -14 -12 -16 -12 -11 1 4 12
-74 56 -328 185 -219 111 -334 175 -334 185 0 10 490 260 1503 767 826 414
1503 752 1505 752 1 1 680 -338 1507 -751z m45010 0 c1014 -508 1505 -758
1505 -768 0 -10 -115 -74 -335 -185 -250 -127 -333 -174 -329 -185 3 -8 2 -12
-1 -8 -4 3 -23 -5 -43 -19 -20 -14 -535 -273 -1144 -576 l-1107 -552 0 -1102
c-1 -606 -4 -1110 -8 -1120 -6 -14 -9 -8 -14 22 -3 22 -7 -144 -8 -368 -1
-370 -3 -408 -18 -414 -10 -4 -541 256 -1506 738 -819 409 -1496 750 -1503
757 -12 11 -14 255 -14 1510 0 823 4 1502 8 1508 5 9 2991 1510 3009 1513 2 1
680 -338 1508 -751z m-34595 726 c0 -8 -4 -12 -10 -9 -5 3 -10 10 -10 16 0 5
5 9 10 9 6 0 10 -7 10 -16z m-360 -230 c0 -8 -19 -13 -24 -6 -3 5 1 9 9 9 8 0
15 -2 15 -3z m-14555 -2746 c1050 -525 1505 -758 1505 -769 0 -10 -63 -47
-184 -110 -102 -52 -187 -101 -189 -109 -9 -33 -251 -161 -1389 -731 l-1178
-590 0 -1117 c0 -996 -7 -1376 -26 -1434 -16 -53 -24 13 -24 210 0 131 -4 211
-9 203 -5 -8 -7 -20 -4 -28 3 -9 0 -11 -10 -7 -9 3 -18 15 -20 27 -2 12 -5 0
-6 -27 0 -27 -4 -46 -8 -42 -5 4 -10 507 -13 1118 l-5 1111 -1135 568 c-696
348 -1142 577 -1155 592 -11 13 -163 96 -340 187 -204 103 -321 168 -323 179
-2 12 344 189 1500 768 827 414 1504 752 1506 752 1 1 680 -338 1507 -751z
m54010 0 c1159 -580 1505 -757 1503 -769 -2 -11 -119 -76 -323 -179 -176 -90
-331 -175 -345 -189 -15 -16 -478 -253 -1157 -591 l-1132 -565 0 -1100 c-1
-1016 -6 -1246 -22 -1095 -3 30 -7 -116 -9 -325 -4 -459 -3 -441 -13 -451 -17
-18 -24 22 -26 149 -1 82 -6 134 -13 138 -28 17 -31 141 -35 1384 l-4 1280
-1127 564 c-620 309 -1185 595 -1257 634 -168 91 -289 169 -276 176 14 9 -233
131 -256 127 -15 -3 -19 3 -21 28 l-2 31 1502 752 c827 414 1504 752 1505 752
2 1 680 -338 1508 -751z m-28547 -763 c-3 -3 -9 2 -12 12 -6 14 -5 15 5 6 7
-7 10 -15 7 -18z m-1132 -940 c456 -225 702 -342 723 -343 18 0 31 1 29 3 -6
7 -610 313 -1195 607 -288 145 -525 268 -527 275 -7 17 38 -5 1127 -549 548
-274 1004 -498 1012 -498 8 0 483 234 1056 520 572 286 1045 520 1050 520 42
0 9 -17 -1011 -530 -294 -148 -569 -287 -610 -310 -73 -40 -74 -41 -35 -37 27
3 241 104 640 302 1411 699 1667 825 1677 819 9 -6 -25 -30 -192 -137 -25 -15
-595 -304 -1267 -640 l-1223 -612 0 -1110 c0 -610 -3 -1166 -6 -1235 -8 -204
-24 -348 -40 -354 -11 -4 -14 -31 -14 -115 l0 -110 78 35 c42 20 111 53 153
74 51 25 81 35 90 29 12 -7 11 -9 -1 -10 -8 -1 -21 -1 -28 0 -7 1 -11 -3 -10
-10 2 -6 -6 -13 -16 -15 -10 -1 -22 -7 -25 -12 -10 -16 -249 -132 -271 -132
-23 0 -3001 1487 -3012 1504 -4 6 -8 682 -8 1502 l0 1490 583 -289 c320 -159
893 -443 1273 -632z m4188 783 c-5 -101 -11 -147 -20 -158 -12 -12 -14 7 -14
129 0 125 2 146 18 157 9 7 18 14 19 14 2 0 0 -64 -3 -142z m-17 -220 c-3 -7
-5 -2 -5 12 0 14 2 19 5 13 2 -7 2 -19 0 -25z m-864 -23 c-3 -9 -8 -14 -10
-11 -3 3 -2 9 2 15 9 16 15 13 8 -4z m-32138 -1087 c1009 -505 1505 -758 1505
-768 0 -9 -82 -57 -224 -129 -126 -65 -227 -122 -229 -131 -7 -26 -300 -178
-1425 -740 l-1072 -535 0 -737 0 -738 1475 -737 c1124 -562 1475 -742 1473
-754 -2 -10 -123 -77 -323 -179 -176 -90 -327 -169 -336 -176 -9 -8 -19 -11
-24 -7 -4 5 -5 0 -2 -9 5 -15 -172 -107 -1133 -585 l-1139 -568 0 -1100 c-1
-1017 -6 -1238 -22 -1100 -3 28 -7 -137 -7 -366 -2 -325 -5 -418 -15 -422 -7
-2 -660 319 -1451 715 -792 396 -1456 726 -1477 735 l-39 15 -739 -368 -740
-369 -2 -1165 c-1 -641 -4 -1195 -8 -1233 -11 -118 -26 -77 -29 80 -2 121 -5
148 -19 158 -10 7 -13 17 -8 25 5 9 4 11 -3 6 -9 -5 -12 -72 -12 -229 0 -170
-3 -218 -12 -209 -6 6 -15 40 -19 74 -5 35 -8 609 -9 1275 l0 1213 -1198 600
c-658 329 -1236 623 -1284 651 -106 64 -121 96 -20 45 350 -176 2053 -1016
2063 -1018 8 -2 16 -6 19 -9 9 -10 69 -19 74 -10 3 4 0 8 -7 8 -7 0 -41 17
-77 38 -36 20 -414 213 -840 428 -426 215 -777 394 -778 399 -2 4 -9 5 -14 2
-7 -4 -8 -2 -4 4 4 8 17 7 41 -4 19 -7 493 -243 1055 -524 561 -280 1025 -510
1030 -510 6 0 341 165 745 367 l735 368 0 1477 c0 1174 3 1480 13 1489 7 6
674 343 1482 748 l1470 736 2 740 2 740 -1141 568 c-717 358 -1142 575 -1145
585 -2 10 -137 85 -339 187 -219 111 -334 175 -334 185 0 10 490 260 1503 767
826 414 1503 752 1505 752 1 1 680 -338 1507 -751z m63010 0 c1007 -504 1505
-758 1505 -768 0 -10 -117 -75 -335 -185 -225 -114 -333 -174 -330 -183 3 -7
0 -10 -5 -7 -6 3 -10 2 -10 -4 0 -5 -513 -265 -1139 -578 l-1140 -568 2 -735
2 -735 1480 -741 c814 -408 1486 -747 1492 -753 10 -9 13 -318 13 -1494 l0
-1482 728 -364 727 -363 1020 508 c1051 525 1096 547 1104 539 2 -3 2 -7 0 -8
-7 -6 -736 -376 -1204 -610 -466 -234 -514 -260 -496 -271 6 -4 11 -1 11 6 0
9 3 10 8 2 8 -13 -11 -22 1231 593 481 238 876 431 879 429 20 -20 -187 -129
-1420 -744 l-1077 -537 -2 -1165 c-1 -641 -4 -1195 -8 -1233 -11 -119 -26 -76
-29 83 -2 99 -6 150 -13 150 -6 0 -9 7 -5 15 3 8 1 15 -4 15 -6 0 -10 -83 -10
-215 0 -134 -4 -215 -10 -215 -11 0 -16 20 -24 93 -3 27 -6 593 -6 1258 l0
1209 -730 365 c-402 201 -739 365 -750 365 -11 0 -675 -328 -1477 -729 -1055
-528 -1461 -726 -1470 -719 -10 8 -13 107 -15 427 0 229 -4 394 -8 366 -4 -27
-9 -48 -11 -45 -2 3 -6 506 -9 1119 l-5 1114 -1133 567 c-624 312 -1141 575
-1150 585 -13 14 -13 16 -2 10 10 -5 12 -5 5 2 -5 6 -158 86 -340 178 -207
105 -331 174 -333 184 -2 12 339 187 1443 739 795 397 1455 732 1465 742 20
20 20 36 20 743 0 397 -4 727 -8 733 -4 6 -538 277 -1187 602 -1160 581 -1370
691 -1380 721 -3 9 -88 58 -190 109 -133 67 -185 98 -185 110 0 13 374 204
1503 769 826 414 1503 752 1504 752 2 1 680 -338 1508 -751z m-67510 -2250
c1150 -575 1505 -757 1503 -769 -2 -10 -126 -79 -333 -185 -319 -162 -360
-185 -349 -197 3 -3 -507 -261 -1134 -574 l-1141 -568 0 -1105 c-1 -608 -5
-1111 -10 -1118 -17 -28 -21 134 -21 931 0 804 -3 897 -32 897 -4 0 -8 -408
-9 -907 0 -845 -5 -1026 -22 -899 -4 27 -7 533 -7 1125 l0 1076 -997 497
c-1122 559 -1279 639 -1276 653 1 6 -153 89 -343 185 -252 129 -344 180 -344
192 0 14 359 197 1498 767 823 413 1500 750 1505 750 4 1 685 -338 1512 -751z
m73505 -768 c0 -10 -113 -73 -324 -180 -178 -91 -322 -168 -319 -172 2 -4 -4
-5 -13 -1 -13 5 -16 3 -11 -10 5 -13 -200 -119 -1143 -589 l-1149 -573 -1
-1105 c-1 -944 -5 -1170 -21 -1140 -2 3 -5 415 -8 917 -5 710 -9 915 -18 925
-10 10 -13 -172 -13 -909 0 -510 -4 -924 -9 -927 -4 -3 -11 15 -15 41 -3 25
-6 530 -6 1123 l0 1076 -967 481 c-1039 516 -1325 662 -1318 674 4 6 -394 216
-607 320 -41 20 -68 40 -68 49 0 10 477 254 1502 766 l1503 752 1502 -752
c1011 -505 1503 -756 1503 -766z m-40304 -870 c2 0 187 -92 412 -204 246 -123
423 -205 446 -208 34 -4 36 -3 20 9 -10 7 -24 11 -32 8 -7 -2 -11 -1 -8 4 6 9
-267 149 -1156 596 -285 143 -518 263 -518 268 0 4 4 7 9 7 5 0 483 -236 1061
-525 578 -289 1057 -525 1065 -525 8 0 468 226 1022 503 555 277 1033 513
1063 525 151 62 -44 -41 -810 -427 -459 -232 -838 -425 -843 -430 -5 -5 5 -8
25 -6 20 2 341 156 754 360 1343 667 1584 784 1584 771 0 -20 -165 -122 -365
-227 -99 -52 -667 -337 -1262 -634 l-1082 -539 -4 -1275 c-4 -1312 -7 -1411
-43 -1452 -11 -12 -14 -39 -12 -106 l3 -90 220 108 c121 59 222 106 224 104 2
-2 10 3 18 11 8 8 19 12 24 9 5 -4 9 -2 9 3 0 6 7 12 15 16 9 3 15 0 15 -9 0
-7 -10 -17 -22 -21 -13 -4 -25 -10 -28 -14 -10 -15 -490 -250 -510 -250 -23 0
-3001 1487 -3012 1504 -4 6 -8 682 -8 1502 l0 1492 861 -429 c473 -236 863
-429 865 -429z m4314 593 c-3 -185 -9 -274 -17 -288 -10 -16 -12 34 -13 254 0
249 2 275 18 287 9 7 17 14 17 14 0 0 -2 -120 -5 -267z m-28505 -3460 c1133
-567 1495 -752 1493 -764 -2 -10 -130 -81 -338 -187 -206 -105 -336 -177 -338
-187 -3 -13 -7 -14 -18 -4 -12 10 -13 9 -8 -4 4 -12 -231 -134 -1123 -580
l-1128 -564 -5 -1114 c-3 -613 -7 -1116 -9 -1119 -2 -3 -7 18 -11 45 -4 28 -8
-138 -8 -368 -2 -379 -4 -418 -19 -424 -10 -4 -541 256 -1506 738 -819 409
-1496 750 -1503 757 -12 11 -14 255 -14 1510 0 823 4 1502 8 1508 11 18 2984
1503 3009 1503 13 1 696 -335 1518 -746z m54028 1 c820 -410 1495 -751 1499
-758 4 -6 8 -685 8 -1508 0 -1255 -2 -1499 -14 -1510 -7 -7 -684 -348 -1503
-757 -965 -482 -1496 -742 -1506 -738 -15 6 -17 45 -19 424 0 230 -4 396 -7
368 -4 -36 -8 -45 -13 -32 -5 10 -8 514 -9 1120 l0 1102 -1139 568 c-670 334
-1140 574 -1142 583 -2 9 -150 90 -338 186 -209 107 -336 177 -338 187 -2 12
355 195 1490 763 821 411 1503 747 1516 747 12 1 694 -335 1515 -745z m-27953
-484 c0 -5 -2 -10 -4 -10 -3 0 -8 5 -11 10 -3 6 -1 10 4 10 6 0 11 -4 11 -10z
m-1901 -1141 c453 -225 828 -406 834 -402 5 3 7 1 4 -4 -9 -14 12 -21 42 -14
26 7 -97 71 -1226 638 -259 131 -469 241 -467 245 3 4 13 4 22 -1 9 -4 484
-240 1055 -525 570 -284 1044 -516 1052 -516 8 0 487 236 1066 525 578 289
1055 525 1060 525 5 0 9 -5 9 -11 0 -5 -4 -8 -9 -5 -5 4 -11 2 -13 -2 -3 -9
-400 -212 -1195 -612 -277 -139 -503 -256 -503 -259 0 -4 16 -5 35 -3 19 2 35
7 35 11 0 4 6 8 13 8 6 0 289 138 627 306 338 167 904 448 1258 623 l642 319
-6 -1175 c-6 -981 -9 -1179 -21 -1197 -9 -13 -10 -23 -4 -27 5 -3 12 0 14 6 3
7 6 0 6 -15 1 -15 -5 -40 -13 -55 -10 -20 -15 -73 -16 -187 -1 -88 -2 -187 -3
-220 0 -33 -2 -52 -5 -42 -2 9 -8 14 -13 11 -6 -3 -9 0 -8 7 2 8 -1 39 -6 69
-12 68 -11 -43 -13 1464 -2 1013 -5 1266 -14 1258 -45 -35 -518 -277 -1596
-816 l-1232 -616 0 -1098 c0 -1030 -4 -1385 -15 -1629 -3 -57 -3 -103 0 -103
3 0 545 270 1205 599 660 330 1202 600 1203 600 1 0 46 20 99 45 53 25 100 46
103 46 4 0 19 8 33 19 15 10 41 22 57 26 37 10 34 9 68 23 35 15 37 15 37 -1
0 -7 -19 -23 -42 -35 -24 -13 -67 -36 -97 -52 -59 -33 -112 -61 -153 -80 -15
-7 -25 -17 -22 -22 3 -4 10 -5 16 -2 7 4 8 2 4 -4 -5 -8 -14 -9 -24 -4 -11 6
-27 4 -42 -4 -15 -8 -19 -14 -10 -14 9 0 22 6 29 13 11 10 11 8 0 -10 -7 -12
-17 -19 -21 -17 -4 3 -8 0 -8 -5 0 -6 -4 -11 -10 -11 -5 0 -10 7 -10 15 0 9
-6 12 -16 8 -11 -4 -12 -8 -4 -13 7 -4 9 -13 5 -19 -5 -9 -10 -9 -20 -1 -10 8
-15 8 -21 -1 -4 -8 -3 -9 4 -5 7 4 12 2 12 -3 0 -6 -6 -12 -12 -12 -18 -2 -20
-1 -43 7 l-20 7 20 -17 c19 -15 19 -16 1 -9 -15 5 -17 3 -12 -8 4 -8 0 -5 -8
5 -16 19 -16 19 -16 -2 0 -23 -36 -45 -54 -34 -5 3 -6 1 -3 -5 5 -8 -1090
-559 -2151 -1082 l-163 -80 -1502 750 c-826 413 -1505 756 -1509 763 -4 6 -8
682 -8 1502 l0 1491 443 -219 c243 -121 813 -404 1266 -629z m-19674 -626
c999 -500 1495 -753 1495 -763 0 -10 -124 -78 -340 -188 -187 -96 -338 -177
-335 -182 4 -7 -13 -17 -35 -22 -3 -1 -11 -7 -18 -15 -7 -7 -512 -261 -1122
-565 l-1109 -553 0 -1112 c-1 -676 -5 -1114 -10 -1118 -5 -3 -12 7 -14 22 -2
16 -5 -151 -6 -370 -1 -360 -3 -398 -18 -404 -10 -4 -541 256 -1506 738 -819
409 -1496 750 -1503 757 -12 11 -14 255 -14 1510 0 823 4 1502 8 1508 11 18
2984 1503 3009 1503 13 1 696 -335 1518 -746z m45029 0 c1269 -635 1496 -751
1501 -771 3 -14 3 -541 0 -1174 -6 -961 -9 -1153 -21 -1176 -16 -31 -18 -56
-4 -47 19 12 23 -28 6 -59 -13 -25 -15 -38 -7 -60 13 -34 14 -59 2 -52 -6 4
-10 -58 -10 -151 -1 -96 -6 -162 -12 -170 -6 -7 -9 -20 -5 -28 3 -9 2 -14 -3
-11 -21 13 -24 224 -25 1483 -1 739 -3 1343 -6 1343 -4 0 -10 -4 -15 -9 -6 -4
-46 -27 -90 -51 -44 -23 -134 -72 -200 -107 -66 -35 -660 -334 -1320 -665
-660 -330 -1203 -603 -1207 -606 -3 -4 -9 -623 -11 -1377 -3 -753 -8 -1389
-12 -1412 -3 -24 -3 -43 0 -43 13 0 280 134 293 147 7 7 18 13 24 13 6 0 473
232 1040 515 566 283 1035 515 1043 515 7 0 15 3 17 8 3 7 132 72 144 72 4 0
42 18 85 40 43 22 88 40 99 40 11 0 20 4 20 8 0 5 6 9 13 10 6 1 28 5 47 8 32
6 34 6 21 -10 -8 -9 -16 -14 -18 -12 -3 2 -26 -8 -53 -24 -26 -15 -89 -49
-139 -76 -50 -26 -91 -51 -91 -56 0 -5 -4 -7 -9 -3 -5 3 -17 -2 -25 -11 -9 -8
-16 -13 -16 -9 0 15 -42 -19 -50 -41 -7 -17 -14 -23 -22 -17 -27 16 -39 12
-32 -10 6 -19 5 -20 -8 -9 -13 10 -18 9 -29 -5 -13 -17 -13 -17 6 -3 19 14 19
14 6 -2 -7 -10 -17 -16 -21 -13 -5 3 -11 1 -15 -5 -4 -7 -13 -6 -27 1 -14 7
-18 8 -14 0 9 -15 -32 -54 -50 -47 -8 3 -13 2 -10 -2 8 -13 -2288 -1156 -2307
-1149 -15 6 -17 45 -19 419 0 227 -4 391 -7 363 -16 -138 -21 82 -21 1094 0
602 -3 1097 -5 1100 -3 3 -517 263 -1143 576 -625 314 -1136 575 -1135 582 2
10 -575 314 -649 342 -16 6 -28 18 -28 28 0 14 350 193 1493 765 820 411 1502
747 1514 747 13 1 695 -335 1517 -746z m-21024 -1063 c0 -5 -5 -10 -11 -10 -5
0 -7 5 -4 10 3 6 8 10 11 10 2 0 4 -4 4 -10z m-19505 -1187 c999 -500 1495
-753 1495 -763 0 -10 -122 -76 -336 -185 -184 -93 -338 -174 -341 -179 -4 -5
0 -6 8 -1 9 5 7 1 -3 -10 -9 -10 -527 -273 -1150 -585 l-1133 -567 -5 -1114
c-3 -613 -7 -1116 -9 -1119 -2 -3 -7 13 -11 35 -4 22 -8 -144 -9 -368 -1 -370
-3 -408 -18 -414 -10 -4 -541 256 -1506 738 -819 409 -1496 750 -1503 757 -12
11 -14 255 -14 1510 0 823 4 1502 8 1508 11 18 2984 1503 3009 1503 13 1 696
-335 1518 -746z m36028 1 c820 -410 1493 -747 1495 -749 3 -3 2 -489 -1 -534
-1 -13 -8 -26 -14 -29 -10 -3 -13 52 -13 252 0 141 -2 256 -5 256 -11 0 -185
-90 -185 -96 0 -3 5 -2 12 2 6 4 8 3 5 -3 -15 -24 -191 -132 -360 -221 -101
-54 -675 -342 -1275 -642 l-1091 -544 -4 -1271 c-4 -1298 -8 -1425 -42 -1451
-11 -9 -15 -34 -15 -107 l0 -96 216 105 c119 57 221 101 227 97 6 -3 7 -1 3 5
-6 10 6 17 18 10 2 -2 13 5 23 15 18 16 77 21 67 6 -2 -4 -12 -5 -23 -2 -11 3
-28 -5 -43 -20 -26 -26 -477 -257 -502 -257 -7 0 -17 7 -20 16 -3 9 -7 194 -8
412 0 218 -4 377 -7 352 -17 -124 -21 86 -21 1105 l-1 1100 -1127 562 c-620
310 -1138 572 -1152 584 -14 11 -19 17 -11 13 8 -4 11 -3 8 2 -3 5 -157 86
-341 179 -214 109 -336 175 -336 185 0 17 2971 1509 3008 1509 12 1 694 -335
1515 -745z m-16608 726 c-3 -5 -10 -10 -16 -10 -5 0 -9 5 -9 10 0 6 7 10 16
10 8 0 12 -4 9 -10z m-4196 -2376 c535 -266 804 -394 825 -394 41 0 28 7 -914
482 -426 215 -777 393 -779 395 -2 1 -2 5 0 8 8 8 55 -15 1102 -537 559 -280
1024 -508 1032 -508 8 0 483 234 1056 520 572 286 1045 518 1050 514 5 -3 9 0
9 5 0 6 8 11 17 11 15 0 15 -2 -2 -13 -26 -18 -511 -264 -1172 -597 -288 -144
-523 -266 -523 -272 0 -5 -3 -7 -8 -4 -4 2 -16 -2 -27 -10 -10 -8 -14 -14 -9
-14 6 0 14 3 17 7 4 3 19 8 34 9 14 2 29 7 32 11 3 4 14 9 24 11 20 3 2493
1228 2515 1245 9 7 12 -291 12 -1484 0 -822 -4 -1499 -8 -1505 -8 -13 -3000
-1512 -3017 -1512 -17 0 -3009 1499 -3017 1512 -4 6 -8 682 -8 1503 l0 1492
483 -241 c265 -132 839 -418 1276 -634z m34286 848 c-3 -3 -11 0 -18 7 -9 10
-8 11 6 5 10 -3 15 -9 12 -12z m-70772 -609 c367 -183 669 -333 672 -333 2 0
140 -68 306 -150 213 -106 307 -149 321 -144 14 4 18 2 14 -5 -5 -7 -1 -9 9
-5 22 9 1 20 -925 486 -426 215 -777 393 -779 395 -2 1 -2 5 0 8 8 8 55 -15
1102 -537 559 -280 1021 -508 1027 -508 5 0 482 236 1061 525 578 289 1055
525 1060 525 5 0 9 -3 9 -7 0 -8 -86 -53 -1000 -513 -627 -316 -731 -370 -712
-370 7 0 23 5 35 12 20 10 21 10 8 -5 -8 -10 28 3 80 29 131 64 1366 675 1759
870 311 154 419 197 290 113 -52 -33 -235 -136 -325 -181 -16 -8 -517 -259
-1112 -557 l-1083 -541 0 -1128 c0 -1149 -7 -1417 -35 -1438 -12 -9 -15 -41
-15 -168 0 -109 -3 -156 -11 -156 -8 0 -8 -4 -1 -13 8 -10 6 -13 -7 -13 -17 0
-19 11 -20 119 -2 89 -6 123 -16 134 -8 8 -15 22 -15 31 0 9 -5 60 -10 112 -5
53 -10 626 -10 1305 l0 1210 -1183 592 c-651 325 -1212 608 -1248 629 -137 79
-239 146 -234 155 7 10 51 -12 988 -478z m72472 -228 c429 -213 785 -388 790
-390 6 -1 17 -5 25 -8 8 -3 29 -8 45 -11 24 -5 26 -4 13 4 -10 6 -21 10 -24
10 -4 -1 -10 2 -13 7 -11 16 -117 71 -896 463 -418 211 -766 387 -773 393 -18
14 -8 20 15 9 10 -5 486 -242 1058 -527 l1040 -517 1054 526 c579 289 1057
526 1062 526 5 0 9 -3 9 -7 0 -8 -86 -53 -1000 -513 -627 -316 -731 -370 -712
-370 7 0 23 5 35 12 20 10 21 10 8 -5 -8 -10 28 3 80 29 131 64 1366 675 1759
870 311 154 419 197 290 113 -52 -33 -235 -136 -325 -181 -16 -8 -517 -259
-1112 -557 l-1082 -541 -4 -1232 c-3 -678 -9 -1255 -14 -1283 -5 -31 -13 -49
-21 -48 -9 2 -12 -41 -13 -175 -1 -97 -1 -182 0 -188 1 -6 -5 -16 -12 -22 -11
-9 -14 14 -16 131 -1 85 -6 144 -13 148 -29 18 -31 120 -35 1379 l-4 1285
-1127 564 c-620 309 -1185 595 -1257 634 -155 84 -269 157 -272 174 -3 13 257
-114 1442 -702z m-9188 603 c-3 -8 -6 -5 -6 6 -1 11 2 17 5 13 3 -3 4 -12 1
-19z m-46 -443 c6 15 8 16 8 4 1 -9 -6 -22 -14 -29 -13 -11 -15 -8 -14 16 1
22 3 24 7 9 l5 -20 8 20z m-37483 -772 c1046 -520 1502 -751 1502 -762 0 -11
-112 -73 -335 -186 -212 -107 -337 -176 -341 -187 -3 -12 -393 -211 -1144
-585 l-1139 -568 0 -1080 c-1 -594 -4 -1098 -8 -1120 l-8 -40 -6 40 c-3 22 -7
-144 -8 -368 -1 -370 -3 -408 -18 -414 -10 -4 -541 256 -1506 738 -819 409
-1496 750 -1503 757 -12 11 -14 254 -14 1500 0 818 3 1496 6 1508 4 17 335
186 1502 767 823 411 1502 747 1507 747 6 0 686 -336 1513 -747z m27034 0
l1498 -747 0 -147 c0 -111 -4 -154 -15 -175 -14 -27 -15 -18 -15 122 l0 150
-110 -55 c-61 -31 -108 -61 -106 -67 11 -29 -333 -212 -1480 -787 l-1203 -602
-4 -1250 c-4 -1275 -8 -1415 -43 -1441 -11 -9 -14 -37 -14 -123 0 -61 2 -111
5 -111 3 0 46 20 95 45 50 25 90 42 90 38 0 -5 4 -3 8 3 18 28 104 52 87 24
-3 -5 -13 -6 -22 -3 -12 5 -14 3 -8 -7 6 -10 4 -12 -9 -7 -10 4 -15 3 -11 -3
6 -10 -224 -130 -249 -130 -8 0 -17 7 -20 16 -3 9 -7 196 -8 417 0 221 -4 382
-8 357 -4 -25 -9 -43 -11 -40 -2 3 -6 507 -9 1120 l-5 1114 -1138 569 c-626
312 -1135 572 -1132 577 8 14 -18 28 -370 206 -210 106 -315 164 -315 175 0
11 457 243 1498 761 823 411 1503 747 1511 747 8 1 689 -335 1513 -746z
m-3577 -2725 c15 7 35 1 29 -10 -5 -8 -2 -9 9 -5 10 3 17 2 17 -4 0 -6 3 -8 8
-6 13 8 507 -247 509 -263 1 -10 -56 -44 -180 -106 -116 -58 -186 -99 -192
-112 -19 -41 -245 -161 -1397 -738 l-1168 -585 0 -1107 c0 -994 -7 -1385 -26
-1446 -15 -48 -23 17 -25 207 -1 195 -7 238 -24 185 -7 -22 -8 -22 -15 7 -7
26 -8 24 -9 -19 0 -27 -4 -46 -8 -42 -5 4 -10 508 -13 1119 l-5 1111 -1133
566 c-623 312 -1140 574 -1149 583 -15 15 -14 16 8 11 13 -3 -64 40 -171 94
-384 196 -505 261 -505 274 0 16 531 287 564 288 44 0 6 -23 -253 -155 -141
-71 -256 -132 -256 -135 0 -11 207 -99 230 -98 28 1 117 -30 245 -85 44 -18
619 -303 1277 -633 l1197 -598 1167 583 c642 321 1201 599 1243 618 135 62
300 123 316 117 14 -6 224 85 224 96 1 3 -114 63 -253 135 -140 71 -252 134
-248 139 3 5 -2 7 -11 3 -10 -3 -17 -2 -17 4 0 6 -4 8 -8 5 -4 -2 -8 4 -8 15
0 19 1 20 14 2 7 -10 15 -17 17 -15z m-18015 2 c10 0 25 -7 34 -15 8 -9 19
-15 23 -14 4 1 119 -54 256 -122 164 -82 247 -129 246 -139 0 -9 -121 -75
-330 -180 -181 -91 -329 -169 -329 -173 0 -5 -4 -5 -10 -2 -5 3 -10 -3 -10
-14 0 -16 -195 -117 -1139 -588 l-1140 -568 0 -1096 c-1 -1016 -6 -1261 -22
-1109 -3 30 -6 -115 -7 -322 -1 -208 -2 -381 -1 -384 0 -4 -5 -11 -13 -15 -10
-7 -10 -9 0 -9 6 0 12 -4 12 -10 0 -5 -7 -10 -15 -10 -8 0 -13 -6 -11 -12 1
-7 1 -10 -1 -5 -3 4 -8 5 -13 2 -4 -3 -10 2 -14 10 -3 8 0 14 6 12 15 -3 11
255 -4 264 -28 17 -31 143 -35 1384 l-4 1281 -1127 563 c-1335 667 -1502 755
-1531 810 -6 10 -70 49 -143 86 -89 45 -133 73 -133 84 0 11 77 55 250 142
138 70 253 125 258 122 4 -2 7 1 7 7 0 6 5 8 10 5 6 -3 10 -1 10 6 0 7 3 9 6
6 4 -3 15 -2 25 4 14 7 19 6 19 -3 0 -7 -119 -74 -265 -148 -145 -74 -265
-137 -265 -140 0 -12 208 -99 235 -99 35 0 179 -55 335 -128 58 -27 617 -305
1243 -618 l1137 -569 1203 602 c1149 573 1445 713 1512 713 27 0 235 87 235
99 0 3 -110 61 -244 130 -135 68 -242 129 -239 134 3 5 1 6 -5 3 -18 -12 -42
4 -41 27 0 11 3 15 6 9 2 -7 13 -13 23 -13z m-29482 -285 c-3 -3 -9 2 -12 12
-6 14 -5 15 5 6 7 -7 10 -15 7 -18z m42 5 c-6 -11 -16 -20 -23 -19 -9 0 -9 2
1 6 6 2 12 9 12 14 0 6 -5 7 -12 3 -7 -4 -8 -3 -4 4 4 7 14 12 22 12 12 0 12
-4 4 -20z m33423 -201 c278 -138 407 -197 421 -193 17 4 18 3 6 -5 -12 -8 -8
-11 17 -11 22 0 360 -164 1073 -520 572 -286 1047 -520 1055 -520 8 0 468 226
1022 503 1185 590 1127 562 1120 544 -3 -8 189 81 426 198 307 151 436 209
445 202 9 -7 12 -314 12 -1472 l0 -1462 749 -375 750 -374 1043 521 c1198 598
1429 708 1442 686 5 -8 -221 -130 -511 -276 -84 -42 -153 -78 -153 -79 0 -2
18 0 40 4 22 4 40 6 40 4 0 -2 82 38 183 88 316 158 467 227 472 218 12 -20
-263 -163 -1537 -797 l-958 -477 0 -743 0 -744 1465 -729 c1236 -615 1465
-732 1465 -749 0 -17 -59 -50 -340 -191 -211 -106 -340 -176 -340 -184 0 -10
-416 -222 -1139 -583 l-1139 -568 -1 -1100 c-1 -1017 -6 -1238 -22 -1100 -3
28 -7 -138 -7 -367 -2 -305 -5 -419 -14 -424 -6 -4 -655 315 -1485 729 -810
406 -1481 737 -1490 737 -9 0 -348 -165 -754 -367 l-738 -368 -3 -1225 c-2
-674 -7 -1230 -11 -1237 -4 -7 -14 -10 -22 -6 -12 4 -15 32 -15 154 0 96 -4
149 -10 149 -6 0 -15 10 -20 23 -6 14 -9 -57 -9 -200 -1 -209 -6 -249 -27
-205 -5 9 -11 585 -14 1279 -3 694 -7 1263 -10 1266 -17 16 -1454 727 -1469
727 -11 0 -678 -329 -1481 -730 -1156 -578 -1465 -729 -1476 -719 -17 14 -22
322 -30 1869 l-5 1115 -1120 558 c-668 333 -1129 568 -1141 583 -16 18 -24 21
-30 12 -6 -10 -8 -9 -8 2 0 10 -122 77 -335 185 -216 110 -335 175 -335 185 0
10 494 262 1478 755 l1477 740 2 725 c1 399 -1 730 -5 736 -4 7 -513 265
-1132 574 -1006 502 -1355 681 -1414 725 -10 8 -16 18 -15 24 2 6 168 -70 369
-168 253 -124 376 -178 400 -179 30 0 13 11 -105 70 -295 147 -525 270 -520
279 14 22 242 -87 1437 -683 571 -285 1043 -518 1049 -518 6 0 342 165 745
366 l734 367 0 1472 c0 809 3 1475 7 1478 11 11 29 3 446 -204z m-34597 -744
c456 -225 702 -342 723 -343 18 0 31 1 29 3 -6 7 -610 313 -1195 607 -288 145
-525 268 -527 275 -7 17 38 -5 1127 -549 548 -274 1001 -498 1007 -498 5 0
467 228 1027 508 1123 560 1146 571 1127 541 -3 -5 -9 -7 -14 -4 -4 3 -10 1
-12 -3 -3 -9 -377 -200 -1235 -632 -244 -122 -440 -227 -437 -232 3 -5 0 -9
-7 -7 -30 4 -43 -3 -19 -10 30 -9 52 -3 43 12 -3 5 -1 7 4 4 6 -4 289 131 630
299 340 169 845 419 1123 556 430 213 550 269 550 254 0 -6 -110 -77 -200
-131 -52 -31 -636 -327 -1297 -658 l-1203 -602 0 -1120 c0 -616 -3 -1174 -6
-1240 -7 -182 -24 -318 -40 -336 -10 -11 -14 -44 -14 -123 0 -59 3 -106 8
-104 4 2 57 27 117 57 110 53 146 69 155 68 3 0 15 5 27 11 16 9 24 9 29 0 4
-6 3 -8 -3 -5 -6 4 -27 -5 -48 -19 -52 -35 -291 -154 -310 -154 -20 0 -2998
1489 -3007 1504 -4 6 -8 682 -8 1502 l0 1490 583 -289 c320 -159 893 -443
1273 -632z m71433 286 c690 -342 1260 -620 1268 -617 8 3 11 1 8 -4 -3 -6 2
-10 12 -10 11 0 24 -5 29 -10 7 -7 11 -6 11 4 0 8 -4 13 -8 10 -4 -2 -9 0 -11
4 -5 13 -136 81 -943 487 -412 208 -752 380 -754 382 -2 1 -1 6 3 10 4 4 482
-231 1064 -521 l1057 -528 1020 509 c1125 561 1148 572 1129 542 -3 -5 -9 -7
-14 -4 -4 3 -10 1 -12 -3 -3 -9 -377 -200 -1235 -632 -244 -122 -440 -227
-437 -232 3 -5 0 -9 -7 -7 -30 4 -43 -3 -19 -10 30 -9 52 -3 43 12 -3 5 -1 7
4 4 6 -4 289 131 630 299 340 169 845 419 1123 556 430 213 550 269 550 254 0
-6 -110 -77 -200 -131 -52 -31 -636 -327 -1297 -658 l-1203 -602 0 -1120 c0
-616 -3 -1172 -5 -1235 -9 -194 -26 -333 -41 -345 -12 -8 -14 -34 -12 -118 l3
-107 78 39 c93 46 188 89 202 91 6 1 18 6 27 11 11 6 19 5 24 -3 4 -6 3 -8 -3
-5 -5 3 -32 -8 -60 -26 -28 -18 -105 -59 -172 -92 l-122 -60 -1491 745 c-820
410 -1497 751 -1504 758 -20 19 -21 3010 -1 2995 6 -6 576 -290 1266 -632z
m-67271 330 c-13 -54 -13 -50 -16 113 -2 129 1 171 10 177 19 12 23 -216 6
-290z m72007 22 c-3 -13 -10 -23 -15 -23 -16 0 -13 287 3 293 9 3 13 -27 15
-122 1 -69 0 -136 -3 -148z m-29974 -3446 c-10 -9 -11 -8 -5 6 3 10 9 15 12
12 3 -3 0 -11 -7 -18z m-42019 -1028 c-2 -213 -5 -264 -17 -276 -13 -13 -15
17 -15 248 0 238 2 263 18 275 9 7 17 14 17 14 0 0 -1 -117 -3 -261z m67758
-626 c404 -201 741 -366 748 -366 6 0 12 -4 12 -9 0 -4 5 -8 11 -8 5 0 7 6 3
13 -6 8 -3 8 9 -1 9 -8 24 -12 34 -10 17 3 -90 58 -1148 592 -499 253 -577
294 -552 295 6 1 485 -236 1064 -525 644 -321 1055 -521 1057 -514 6 16 2082
1051 2094 1044 5 -3 8 -7 6 -8 -6 -5 -736 -375 -1205 -611 -260 -130 -473
-242 -473 -247 0 -5 -4 -7 -8 -4 -4 2 -14 1 -22 -4 -10 -6 -2 -8 25 -6 29 2
361 162 1162 560 617 306 1131 556 1143 556 12 0 30 5 41 10 13 7 19 7 19 0 0
-5 -6 -10 -13 -10 -7 0 -35 -15 -62 -32 -180 -117 -223 -140 -1572 -813
l-1082 -539 -4 -1276 c-4 -1268 -7 -1412 -38 -1445 -8 -8 -13 -195 -5 -195 4
0 438 209 489 235 32 17 34 12 7 -17 -11 -12 -20 -18 -20 -14 0 4 -7 0 -16 -9
-9 -9 -23 -14 -31 -11 -8 3 -12 2 -9 -2 3 -4 -90 -55 -205 -113 -116 -57 -214
-111 -219 -119 -7 -12 -282 121 -1501 730 -820 410 -1498 751 -1505 758 -12
11 -14 255 -14 1506 l0 1492 523 -259 c287 -143 853 -424 1257 -624z m3363
516 c-8 -8 -13 -7 -18 2 -5 8 -4 10 3 5 7 -4 12 -2 12 5 0 7 3 9 7 6 4 -4 2
-12 -4 -18z m-45620 -3355 c820 -410 1495 -751 1499 -758 4 -6 8 -685 8 -1508
0 -1255 -2 -1499 -14 -1510 -7 -7 -684 -348 -1503 -757 -965 -482 -1496 -742
-1506 -738 -15 6 -17 45 -19 419 0 227 -4 393 -8 368 -4 -25 -9 -43 -11 -40
-2 3 -6 506 -9 1119 l-5 1114 -1128 564 c-892 446 -1127 568 -1123 580 5 13 4
14 -8 4 -11 -10 -15 -9 -18 4 -2 10 -132 82 -338 187 -208 106 -336 177 -338
187 -2 12 359 197 1490 763 821 411 1503 747 1516 747 12 1 694 -335 1515
-745z m18012 -1 c1137 -568 1495 -752 1493 -764 -2 -10 -127 -79 -333 -184
-181 -92 -337 -174 -345 -183 -13 -13 -13 -14 0 -7 12 6 13 5 3 -5 -7 -7 -522
-268 -1145 -580 l-1133 -567 -5 -1114 c-3 -613 -7 -1116 -9 -1119 -2 -3 -7 15
-11 40 -4 25 -8 -141 -8 -368 -2 -374 -4 -413 -19 -419 -10 -4 -541 256 -1506
738 -819 409 -1496 750 -1503 757 -12 11 -14 255 -14 1510 0 823 4 1502 8
1508 11 18 2984 1503 3009 1503 13 1 696 -335 1518 -746z m-45941 -477 c-3 -9
-10 -13 -16 -10 -5 3 -4 12 3 20 15 18 22 13 13 -10z m23431 -1773 c1435 -718
1495 -749 1501 -778 3 -16 3 -385 0 -820 -3 -434 -5 -958 -5 -1162 -1 -325 -3
-373 -16 -373 -9 0 -15 -9 -15 -25 0 -31 8 -32 20 -2 8 20 9 19 9 -10 1 -25
-3 -33 -16 -33 -10 0 -14 -4 -8 -8 22 -16 30 -95 12 -114 -13 -13 -16 -48 -18
-192 -2 -122 -6 -176 -13 -176 -30 0 -35 198 -36 1499 0 718 -2 1307 -4 1309
-3 2 -103 -49 -223 -113 -120 -65 -753 -385 -1408 -712 -654 -327 -1193 -598
-1197 -601 -3 -4 -9 -623 -11 -1377 -3 -753 -9 -1389 -12 -1412 -3 -26 -2 -43
4 -43 5 0 47 20 93 44 189 98 2373 1188 2418 1206 19 7 69 30 111 50 107 53
178 75 192 61 8 -8 8 -11 -1 -11 -22 0 -27 -2 -55 -26 -16 -13 -35 -24 -42
-24 -7 0 -20 -6 -27 -12 -7 -7 -40 -26 -73 -43 -33 -16 -61 -33 -63 -37 -2 -5
-10 -8 -18 -8 -9 0 -12 -5 -8 -12 4 -6 3 -8 -3 -5 -5 3 -23 -1 -39 -9 -16 -9
-31 -16 -34 -17 -3 0 -14 -9 -25 -20 l-20 -18 20 7 c20 7 20 6 1 -8 -11 -9
-28 -13 -39 -10 -15 4 -18 2 -12 -9 8 -12 6 -12 -8 0 -16 12 -17 12 -10 -5 6
-16 5 -17 -9 -6 -13 10 -18 10 -24 1 -5 -8 -3 -9 6 -4 8 5 11 3 8 -6 -4 -13
-10 -15 -50 -18 -10 0 -18 -8 -18 -16 0 -14 -12 -19 -32 -16 -5 0 -8 -2 -8 -7
0 -15 -2296 -1156 -2313 -1149 -15 6 -17 44 -18 404 -1 219 -4 386 -6 370 -2
-15 -9 -25 -14 -22 -5 4 -9 442 -10 1118 l0 1112 -1109 553 c-610 304 -1117
560 -1126 570 -10 9 -20 16 -23 16 -13 -3 -31 9 -26 16 3 5 -148 86 -335 182
-216 110 -340 178 -340 188 0 17 2971 1509 3008 1509 12 1 695 -335 1517 -746z
m27010 0 c998 -500 1495 -753 1495 -763 0 -10 -124 -78 -341 -189 -198 -101
-336 -177 -329 -181 7 -4 -479 -252 -1138 -581 l-1151 -574 0 -1102 c-1 -606
-4 -1110 -8 -1120 -6 -13 -10 -6 -14 27 -3 25 -7 -141 -7 -368 -2 -374 -4
-413 -19 -419 -10 -4 -541 256 -1506 738 -819 409 -1496 750 -1503 757 -12 11
-14 255 -14 1510 0 823 4 1502 8 1508 11 18 2984 1503 3009 1503 13 1 696
-335 1518 -746z m-31510 -2250 l1495 -748 0 -262 c0 -144 -3 -268 -6 -277 -18
-48 -24 8 -24 234 0 138 -2 250 -5 250 -18 0 -185 -93 -185 -103 0 -6 -17 -23
-38 -37 -178 -118 -281 -171 -1670 -865 l-1002 -500 0 -1180 c0 -1284 -8
-1529 -49 -1543 -7 -2 -11 -42 -11 -103 l0 -99 52 26 c125 64 358 172 354 165
-3 -4 1 -8 8 -8 8 0 12 6 10 12 -3 6 7 17 22 24 24 10 26 10 20 -6 -5 -12 1
-10 16 7 13 14 30 25 38 25 8 -1 23 8 33 19 17 21 17 21 5 -7 -6 -16 -17 -26
-24 -23 -8 3 -20 -1 -28 -9 -20 -20 -106 -67 -106 -58 0 4 -4 3 -8 -3 -9 -14
-387 -204 -406 -204 -8 0 -17 7 -20 16 -3 9 -7 196 -8 417 0 221 -4 382 -8
357 -4 -25 -9 -43 -11 -40 -2 3 -6 506 -9 1119 l-5 1114 -1133 567 c-623 312
-1141 575 -1150 585 -10 11 -12 15 -3 10 8 -5 12 -4 8 1 -3 5 -157 86 -341
179 -214 109 -336 175 -336 185 0 17 2971 1509 3007 1509 13 1 696 -335 1518
-746z m36010 0 c999 -500 1495 -753 1495 -763 0 -10 -122 -76 -335 -185 -202
-102 -337 -177 -341 -187 -3 -11 -426 -227 -1144 -585 l-1139 -568 0 -1112
c-1 -681 -5 -1114 -10 -1118 -6 -3 -12 12 -14 32 -2 21 -4 -146 -5 -370 -2
-369 -4 -408 -19 -414 -10 -4 -541 256 -1506 738 -819 409 -1496 750 -1503
757 -12 11 -14 255 -14 1510 0 823 4 1502 8 1508 11 18 2984 1503 3009 1503
13 1 696 -335 1518 -746z m19375 738 c0 -5 -7 -11 -14 -14 -10 -4 -13 -1 -9 9
6 15 23 19 23 5z m-41260 -1854 c206 -101 712 -352 1124 -556 412 -204 751
-369 754 -367 2 3 13 1 23 -4 12 -7 20 -7 24 0 5 9 -1 12 -21 9 -4 0 -10 3
-13 8 -10 16 -117 71 -896 463 -418 210 -767 389 -775 396 -9 9 -10 14 -3 14
6 0 485 -237 1064 -526 778 -388 1058 -524 1075 -520 12 3 492 240 1065 526
573 286 1046 520 1051 520 4 0 8 -4 8 -8 0 -4 -330 -174 -732 -376 -633 -319
-975 -493 -986 -501 -1 -1 6 -5 18 -8 12 -3 18 -1 14 5 -4 6 1 8 15 3 11 -3
21 -2 21 3 0 5 6 9 13 9 6 0 491 237 1075 526 585 290 1066 527 1068 527 17 0
-5 -23 -51 -54 -96 -64 -330 -184 -1437 -737 l-1077 -539 -5 -1233 c-2 -677
-8 -1253 -11 -1279 -5 -34 -12 -49 -26 -53 -18 -6 -19 -18 -19 -185 0 -125 -4
-181 -12 -186 -7 -5 -9 0 -6 14 4 15 2 19 -8 15 -11 -4 -14 16 -14 113 0 87
-4 121 -14 133 -31 34 -36 234 -36 1451 l0 1205 -1137 568 c-626 313 -1187
596 -1248 629 -158 86 -275 161 -275 176 0 7 3 11 8 9 4 -3 176 -88 382 -190z
m36248 -52 c-3 -3 -9 2 -12 12 -6 14 -5 15 5 6 7 -7 10 -15 7 -18z m-44408
-314 c0 -4 -6 -8 -13 -8 -8 0 -14 6 -14 13 0 7 6 10 14 7 7 -3 13 -8 13 -12z
m-10468 -768 l1498 -747 0 -157 c0 -130 -3 -158 -15 -163 -13 -5 -15 14 -15
134 l0 138 -97 -51 c-54 -28 -100 -54 -101 -59 -2 -4 -8 -5 -14 -2 -6 4 -9 1
-6 -7 13 -37 -203 -153 -1479 -792 l-1202 -601 -4 -1251 c-4 -1275 -8 -1415
-43 -1441 -11 -9 -14 -37 -14 -123 0 -61 2 -111 5 -111 3 0 64 29 135 65 72
36 130 62 130 58 0 -5 4 -2 9 5 6 11 10 10 15 -4 4 -10 4 -15 0 -11 -4 4 -22
-5 -41 -19 -18 -14 -33 -21 -33 -17 0 4 -4 3 -8 -3 -9 -14 -207 -114 -226
-114 -8 0 -17 7 -20 16 -3 9 -7 194 -7 412 -1 218 -5 379 -9 357 -4 -26 -9
-35 -13 -25 -4 8 -8 512 -10 1119 l-2 1104 -1137 569 c-746 373 -1139 574
-1142 586 -4 11 -130 81 -341 187 -223 113 -335 175 -335 186 0 11 456 242
1498 761 823 411 1503 747 1511 747 8 1 689 -335 1513 -746z m10408 731 c0 -8
-4 -12 -10 -9 -5 3 -10 10 -10 16 0 5 5 9 10 9 6 0 10 -7 10 -16z m34598 -731
c1046 -520 1502 -751 1502 -762 0 -11 -112 -73 -335 -186 -232 -117 -334 -173
-330 -183 2 -7 1 -11 -4 -7 -5 3 -11 0 -13 -6 -2 -6 -514 -266 -1138 -578
l-1135 -567 -5 -1114 c-3 -613 -7 -1117 -9 -1120 -2 -3 -7 13 -11 35 -4 22 -8
-144 -9 -368 -1 -370 -3 -408 -18 -414 -10 -4 -541 256 -1506 738 -819 409
-1496 750 -1503 757 -12 11 -14 254 -14 1500 0 818 3 1496 6 1508 4 17 335
186 1502 767 823 411 1502 747 1507 747 6 0 686 -336 1513 -747z m-34958 501
c0 -8 -19 -13 -24 -6 -3 5 1 9 9 9 8 0 15 -2 15 -3z m-18492 -3245 c-7 -5 -19
-7 -26 -4 -7 3 -11 1 -8 -3 2 -4 -105 -64 -240 -132 -134 -69 -244 -127 -244
-130 0 -12 208 -99 235 -99 67 0 363 -140 1512 -713 l1203 -602 1137 569 c626
313 1185 591 1243 618 156 73 300 128 335 128 27 0 235 87 235 99 0 3 -120 66
-265 140 -146 74 -265 141 -265 148 0 9 5 10 19 3 10 -6 21 -7 25 -4 3 3 6 1
6 -6 0 -7 5 -9 10 -6 6 3 10 1 10 -5 0 -6 3 -9 8 -7 13 8 507 -247 509 -263 1
-10 -56 -44 -177 -105 -113 -57 -182 -98 -188 -111 -19 -40 -218 -144 -1387
-731 l-1180 -591 -6 -1229 c-4 -675 -10 -1244 -13 -1263 -15 -74 -17 -81 -26
-75 -6 4 -10 94 -10 223 0 131 -4 211 -9 203 -5 -8 -7 -20 -4 -28 3 -9 0 -11
-10 -7 -9 3 -18 15 -20 27 -2 12 -5 0 -6 -28 -1 -36 -4 -46 -11 -35 -6 9 -10
425 -10 1120 l-1 1105 -1140 568 c-944 471 -1139 572 -1139 588 0 11 -4 17
-10 14 -5 -3 -10 -3 -10 2 0 4 -148 82 -329 173 -209 105 -330 171 -330 180
-1 10 82 57 247 139 136 68 251 123 255 122 4 -1 15 5 23 14 9 8 24 15 35 15
10 0 20 6 20 13 1 6 3 4 6 -7 3 -10 -1 -22 -9 -27z m54038 14 c-10 -10 -66
-12 -66 -3 0 5 15 10 33 12 36 4 44 1 33 -9z m4880 -5 c5 -7 3 -8 -6 -3 -9 5
-11 4 -6 -4 4 -6 12 -9 17 -6 13 9 50 -5 44 -16 -3 -5 0 -7 7 -4 19 6 473
-227 473 -244 0 -8 -141 -85 -336 -185 -218 -111 -339 -178 -345 -191 -6 -14
-370 -201 -1139 -585 l-1130 -565 -5 -1120 c-3 -616 -7 -1122 -9 -1125 -2 -3
-7 20 -11 50 -4 30 -8 -116 -10 -325 -4 -459 -3 -441 -13 -451 -17 -18 -24 22
-26 149 -1 82 -6 134 -13 138 -28 17 -31 141 -35 1384 l-4 1280 -1137 569
c-625 312 -1190 597 -1255 633 -158 86 -277 162 -274 175 3 13 -234 139 -250
133 -14 -5 -27 30 -18 45 12 19 524 270 530 260 4 -6 11 -7 17 -4 6 4 8 3 5
-2 -3 -5 -116 -65 -251 -134 -135 -69 -245 -127 -245 -130 0 -12 192 -94 225
-96 45 -4 188 -57 324 -121 58 -27 621 -308 1252 -623 l1148 -573 1177 588
c1340 669 1473 732 1537 723 20 -2 236 90 236 102 0 3 -125 69 -278 147 -236
122 -272 143 -240 143 20 0 40 -5 44 -12z m-29505 -272 c5 3 9 0 9 -6 0 -15
-23 -7 -26 8 -1 7 0 8 3 2 2 -5 9 -8 14 -4z m-1921 -566 c591 -293 1160 -575
1264 -627 104 -51 194 -92 200 -90 6 3 20 0 31 -6 18 -8 18 -8 5 6 -16 17
-370 199 -1197 615 -282 141 -515 262 -517 269 -7 17 101 -35 1153 -561 734
-368 980 -486 997 -482 13 4 481 235 1041 514 560 280 1033 513 1051 520 36
12 44 3 9 -13 -12 -6 -182 -92 -377 -192 -195 -99 -539 -273 -765 -386 -439
-221 -573 -291 -537 -284 12 3 22 1 22 -5 0 -5 5 -6 10 -3 6 4 8 10 6 14 -3 4
5 7 17 7 12 1 527 251 1145 558 1167 578 1334 653 962 428 -58 -35 -646 -334
-1307 -665 l-1203 -602 0 -1120 c0 -1130 -3 -1278 -21 -1460 -8 -79 -14 -104
-29 -117 -18 -14 -20 -29 -20 -122 0 -58 2 -106 5 -106 3 0 66 29 140 64 74
36 135 62 135 59 0 -3 9 2 20 12 11 10 20 15 20 10 0 -4 8 -1 18 6 15 13 16
12 3 -3 -7 -10 -17 -16 -21 -13 -5 3 -15 -3 -22 -13 -15 -22 -291 -162 -319
-162 -22 0 -3000 1487 -3011 1504 -4 6 -8 683 -8 1505 0 1193 3 1491 13 1484
6 -6 496 -250 1087 -543z m4944 538 c-5 -7 -2 -9 7 -6 12 5 14 -18 11 -140 -2
-81 -7 -141 -11 -134 -8 14 -23 2 -34 -28 -3 -8 -6 54 -6 139 -1 135 1 155 17
167 21 17 25 17 16 2z m-40734 -5122 c701 -348 1276 -630 1278 -625 2 5 12 4
23 -2 11 -5 16 -15 13 -21 -5 -7 -2 -8 5 -3 32 19 51 9 -986 531 -403 202
-733 372 -733 376 0 17 56 -10 1212 -588 l928 -464 1051 525 c910 454 1106
549 1076 519 -3 -3 -7 -4 -10 -2 -3 1 -13 -4 -23 -14 -11 -9 -329 -173 -709
-364 -976 -492 -998 -504 -954 -504 24 0 74 19 148 55 61 30 114 55 116 55 3
0 369 182 815 405 446 223 816 405 823 405 6 0 3 -6 -8 -12 -11 -7 -26 -18
-34 -25 -7 -8 -516 -265 -1132 -571 l-1118 -557 -1 -1105 c0 -608 -4 -1111 -9
-1118 -17 -28 -21 133 -22 937 0 454 -4 835 -9 846 -5 11 -9 -538 -9 -1262 -1
-706 -4 -1283 -8 -1282 -5 0 -683 338 -1508 752 l-1500 752 -2 1510 c-2 831 1
1504 5 1498 4 -7 581 -298 1282 -647z m36518 -277 c397 -197 730 -359 740
-360 76 -7 88 -14 -898 483 -426 215 -777 393 -779 395 -2 1 -1 6 3 10 3 4
482 -231 1063 -521 805 -402 1062 -526 1080 -521 13 3 477 232 1031 508 1075
536 1102 550 1096 533 -2 -6 -382 -202 -844 -435 -462 -233 -840 -428 -840
-433 0 -5 -4 -7 -8 -4 -4 2 -14 1 -22 -5 -12 -7 -12 -9 3 -9 12 0 16 -4 11
-12 -5 -8 -1 -7 10 2 10 8 23 15 30 16 6 1 335 163 731 359 1311 651 1585 784
1585 772 0 -7 -30 -32 -67 -56 -38 -25 -80 -52 -94 -62 -52 -35 -403 -213
-1464 -744 l-1080 -540 -5 -1270 c-6 -1342 -9 -1420 -51 -1457 -16 -14 -19
-30 -19 -107 0 -50 2 -91 4 -91 2 0 110 53 242 117 131 64 244 116 251 116 7
0 13 4 13 9 0 4 7 8 15 8 8 0 15 -5 15 -11 0 -5 -4 -7 -10 -4 -5 3 -10 1 -10
-5 0 -10 -61 -42 -76 -39 -4 0 -10 -4 -13 -9 -9 -15 -430 -222 -452 -222 -22
0 -3001 1487 -3011 1504 -4 6 -8 682 -8 1502 l0 1491 553 -275 c303 -151 877
-435 1275 -633z m4230 895 c4 2 6 -114 4 -257 -2 -173 -6 -257 -12 -247 -8 12
-11 11 -16 -7 -18 -64 -24 1 -24 238 0 238 2 263 18 275 9 7 19 8 20 3 2 -5 7
-7 10 -5z m-28503 -3711 c1133 -567 1495 -752 1493 -764 -2 -10 -130 -81 -338
-187 -206 -105 -336 -177 -338 -187 -3 -13 -7 -14 -18 -4 -12 10 -13 9 -8 -4
4 -12 -231 -134 -1123 -580 l-1128 -564 -5 -1124 c-3 -618 -7 -1126 -9 -1129
-2 -3 -7 18 -11 45 -4 28 -8 -135 -8 -362 -2 -319 -5 -412 -14 -416 -15 -5
-3009 1489 -3020 1507 -4 6 -8 684 -8 1506 0 822 4 1500 8 1506 11 18 2984
1503 3009 1503 13 1 696 -335 1518 -746z m54008 1 c820 -410 1495 -751 1499
-758 4 -6 8 -684 8 -1506 0 -822 -4 -1500 -8 -1506 -11 -18 -3005 -1512 -3019
-1507 -10 4 -13 98 -15 421 0 230 -4 395 -8 367 -4 -27 -9 -48 -11 -45 -2 3
-6 509 -9 1124 l-5 1119 -1135 568 c-624 312 -1136 572 -1138 578 -2 6 -9 8
-14 5 -6 -4 -8 -2 -5 3 4 6 1 15 -6 20 -6 6 -156 83 -332 173 -199 101 -321
169 -323 179 -2 12 358 196 1490 763 821 411 1503 747 1516 747 12 1 694 -335
1515 -745z m-29804 -1650 c425 -211 778 -381 784 -377 6 3 7 1 3 -5 -5 -8 0
-12 13 -12 12 0 21 -6 22 -12 0 -10 2 -10 6 0 2 6 9 10 14 6 5 -3 9 -1 9 4 0
5 -159 90 -352 187 -194 98 -396 200 -448 228 -52 27 -284 144 -515 260 -231
115 -413 212 -405 215 7 3 16 0 18 -7 2 -6 7 -9 12 -6 5 3 478 -229 1051 -516
783 -391 1048 -519 1065 -515 13 4 488 238 1055 521 567 283 1035 512 1041
509 5 -3 8 -7 6 -8 -6 -5 -768 -391 -1238 -627 -373 -188 -459 -235 -435 -237
31 -3 75 19 1953 949 347 173 632 310 632 306 0 -5 5 -5 12 -1 9 5 10 -145 5
-626 -4 -348 -7 -877 -8 -1174 0 -298 -3 -535 -6 -528 -8 21 -43 -32 -36 -56
6 -26 23 -19 23 10 0 12 3 18 8 14 8 -9 11 -148 2 -156 -3 -3 -13 -21 -23 -40
-14 -29 -17 -65 -18 -207 -1 -137 -4 -173 -15 -177 -8 -3 -14 -1 -14 4 0 6 5
10 10 10 6 0 10 7 10 16 0 8 -4 12 -10 9 -5 -3 -10 3 -10 14 0 12 5 21 10 21
6 0 10 8 10 18 0 13 -2 14 -9 3 -26 -41 -30 149 -31 1428 0 723 -3 1317 -6
1320 -3 3 -14 0 -24 -7 -101 -63 -457 -245 -1535 -784 -693 -346 -1263 -633
-1267 -637 -4 -4 -9 -540 -10 -1191 -1 -652 -4 -1286 -8 -1410 -3 -124 -5
-226 -4 -228 1 -2 528 259 1170 580 643 321 1198 597 1234 613 36 17 67 33 70
36 3 3 23 14 45 23 22 9 67 30 100 46 61 30 185 73 218 76 25 2 6 -15 -23 -21
-12 -2 -31 -12 -41 -21 -23 -21 -87 -56 -172 -96 -39 -18 -63 -34 -57 -38 7
-4 -2 -10 -21 -14 -17 -3 -48 -16 -68 -28 -35 -22 -39 -24 -62 -27 -5 0 -7 -6
-4 -11 4 -6 11 -8 16 -5 19 12 8 -12 -13 -31 -30 -25 -72 -48 -63 -35 8 14 -5
14 -25 1 -8 -5 -10 -10 -5 -10 6 0 -1 -7 -15 -14 -14 -8 -29 -12 -35 -9 -5 4
-6 2 -2 -2 9 -11 -728 -384 -759 -384 -12 -1 -358 -168 -770 -372 -412 -204
-763 -376 -779 -383 -30 -13 -75 9 -1530 735 -824 412 -1502 755 -1507 761 -4
7 -8 684 -8 1504 l0 1491 493 -245 c270 -134 840 -417 1266 -628z m-19704
-601 c999 -500 1495 -753 1495 -763 0 -10 -124 -78 -340 -188 -187 -96 -338
-177 -335 -182 4 -7 -13 -17 -35 -22 -3 -1 -11 -7 -18 -15 -7 -7 -512 -261
-1122 -565 l-1109 -553 0 -1112 c-1 -676 -5 -1114 -10 -1118 -5 -3 -12 7 -14
22 -2 16 -5 -153 -6 -374 -1 -311 -4 -402 -13 -406 -15 -5 -3009 1489 -3020
1507 -4 6 -8 684 -8 1506 0 822 4 1500 8 1506 11 18 2984 1503 3009 1503 13 1
696 -335 1518 -746z m45008 1 c820 -411 1495 -751 1499 -758 4 -6 8 -684 8
-1506 0 -822 -4 -1500 -8 -1506 -11 -18 -3005 -1512 -3019 -1507 -10 4 -13 98
-15 421 0 230 -4 395 -7 367 -16 -138 -21 83 -22 1100 l-1 1100 -1121 559
c-670 334 -1132 570 -1147 586 -14 15 -175 103 -357 196 -213 108 -333 174
-333 184 0 17 2971 1509 3008 1509 12 1 694 -335 1515 -745z m-40508 -2251
c999 -500 1495 -753 1495 -763 0 -10 -122 -76 -336 -185 -184 -93 -338 -174
-341 -179 -4 -5 0 -6 8 -1 9 5 7 1 -3 -10 -9 -10 -527 -273 -1150 -585 l-1133
-567 -5 -1119 c-3 -616 -7 -1121 -9 -1124 -2 -3 -7 20 -11 50 -4 30 -7 -135
-8 -367 -2 -327 -5 -422 -14 -426 -15 -5 -3009 1489 -3020 1507 -4 6 -8 684
-8 1506 0 822 4 1500 8 1506 11 18 2984 1503 3009 1503 13 1 696 -335 1518
-746z m36008 1 c820 -411 1495 -751 1499 -758 4 -6 8 -684 8 -1506 0 -822 -4
-1500 -8 -1506 -11 -18 -3005 -1512 -3019 -1507 -10 4 -13 97 -15 416 0 227
-4 392 -8 367 -4 -25 -9 -43 -11 -40 -2 3 -6 509 -9 1124 l-5 1120 -1120 560
c-617 309 -1132 569 -1145 579 -14 9 -23 20 -22 24 2 4 -147 83 -332 177 -214
109 -336 176 -336 186 0 17 2971 1509 3008 1509 12 1 694 -335 1515 -745z
m-16972 513 c-6 -8 -8 -17 -4 -20 3 -4 2 -7 -4 -7 -19 0 -22 13 -5 26 22 17
27 17 13 1z m-23 -41 c-2 -1 -10 -7 -19 -14 -14 -10 -16 -9 -14 10 3 32 3 32
20 18 9 -7 14 -13 13 -14z m-3819 -2117 c420 -209 770 -379 778 -379 7 0 13
-4 13 -9 0 -5 11 -11 25 -13 17 -4 25 -1 25 9 0 10 -6 13 -16 9 -8 -3 -13 -2
-10 2 6 10 -13 20 -914 474 -404 204 -742 377 -750 384 -8 8 -10 14 -3 14 6 0
485 -237 1064 -526 773 -386 1058 -524 1075 -520 12 3 492 240 1065 526 573
286 1046 520 1051 520 4 0 8 -5 8 -11 0 -5 -4 -8 -9 -5 -5 4 -11 2 -13 -2 -3
-10 -396 -211 -1145 -587 -282 -141 -513 -261 -513 -266 0 -5 -3 -8 -7 -8 -5
1 -15 1 -23 0 -12 -1 -13 -3 -1 -10 7 -5 25 -5 40 -1 29 9 2529 1247 2549
1263 8 6 12 6 12 -2 0 -7 5 -9 10 -6 12 7 14 -2973 2 -2991 -11 -17 -1469
-744 -1476 -736 -4 3 -357 -168 -784 -382 l-777 -388 -1495 744 c-822 410
-1503 752 -1512 762 -17 16 -18 102 -18 1511 l0 1494 493 -246 c270 -135 836
-416 1256 -624z m-10701 -606 c1046 -520 1502 -751 1502 -762 0 -11 -112 -73
-335 -186 -211 -106 -337 -176 -341 -187 -3 -12 -396 -213 -1142 -586 l-1137
-569 -5 -1114 c-3 -613 -7 -1116 -9 -1119 -2 -3 -7 15 -11 40 -4 25 -8 -142
-8 -372 -2 -323 -5 -417 -14 -421 -7 -2 -691 335 -1520 749 l-1508 754 0 1503
c0 826 4 1507 8 1514 8 12 2989 1502 3007 1503 6 0 686 -336 1513 -747z
m27011 2 c822 -410 1499 -751 1503 -758 4 -7 8 -688 8 -1514 l0 -1503 -1507
-754 c-830 -414 -1514 -751 -1520 -749 -10 4 -13 98 -15 421 0 230 -4 397 -8
372 -4 -25 -9 -43 -11 -40 -2 3 -6 506 -9 1119 l-5 1114 -1136 569 c-751 375
-1138 574 -1141 586 -3 11 -127 79 -341 187 -225 113 -337 175 -337 186 0 11
456 242 1498 761 823 411 1503 747 1511 747 8 1 687 -334 1510 -744z m-21569
-2725 c10 0 25 -7 34 -15 8 -9 19 -15 23 -14 4 1 119 -54 256 -122 164 -82
247 -129 246 -139 0 -9 -121 -75 -330 -180 -181 -91 -329 -169 -329 -173 0 -5
-4 -5 -10 -2 -5 3 -10 -3 -10 -14 0 -16 -195 -117 -1139 -588 l-1140 -568 0
-1102 c-1 -606 -4 -1110 -8 -1120 -6 -13 -10 -6 -14 27 -3 25 -7 -142 -7 -372
-2 -323 -5 -417 -14 -421 -7 -2 -691 335 -1520 749 l-1508 754 0 1503 c0 826
4 1507 8 1513 10 17 509 264 516 257 3 -4 6 -1 6 6 0 7 5 9 10 6 6 -3 10 -1
10 6 0 7 3 9 6 6 4 -3 15 -2 25 4 14 7 19 6 19 -3 0 -7 -119 -74 -265 -148
-145 -74 -265 -137 -265 -140 0 -12 208 -99 235 -99 35 0 179 -55 335 -128 58
-27 617 -305 1243 -618 l1137 -569 1203 602 c1149 573 1445 713 1512 713 27 0
235 87 235 99 0 3 -110 61 -244 130 -135 68 -242 129 -239 134 3 5 1 6 -5 3
-18 -12 -42 4 -41 27 0 11 3 15 6 9 2 -7 13 -13 23 -13z m13155 -6 c-5 -2 -39
-20 -75 -39 -36 -19 -156 -80 -267 -137 -112 -57 -203 -105 -202 -108 0 -11
206 -99 229 -98 73 2 234 -74 1522 -718 l1197 -598 938 469 c1418 708 1504
750 1631 800 64 25 134 47 154 48 34 3 227 85 227 97 0 3 -106 59 -236 125
-130 66 -245 129 -256 140 -11 11 -16 14 -12 7 6 -12 3 -12 -16 -2 -38 20 -37
22 6 18 41 -5 563 -260 577 -282 4 -6 8 -687 8 -1513 l0 -1503 -1507 -754
c-830 -414 -1514 -751 -1520 -749 -10 4 -13 98 -15 421 0 230 -4 397 -7 372
-4 -33 -8 -40 -13 -27 -5 10 -8 514 -9 1120 l0 1102 -1132 565 c-895 447
-1135 570 -1144 590 -7 14 -13 21 -13 17 0 -4 -6 -3 -12 3 -7 6 -157 85 -333
175 -186 94 -320 168 -320 176 0 17 528 286 570 291 30 3 48 -2 30 -8z m-9182
-480 c264 -131 417 -202 429 -198 13 4 18 0 18 -13 0 -13 2 -15 9 -5 6 10 266
-116 1050 -507 573 -287 1048 -521 1056 -521 8 0 427 206 932 459 505 252 972
484 1038 515 66 31 128 61 137 66 10 6 19 6 23 1 3 -5 198 85 433 201 235 115
431 210 436 211 5 1 15 -8 21 -20 7 -13 15 -20 18 -16 4 3 7 -321 7 -720 0
-478 -3 -727 -10 -727 -7 0 -10 -249 -10 -728 l0 -729 750 -374 751 -375 897
449 c1365 683 1648 817 1571 743 -8 -8 -155 -86 -328 -174 -261 -133 -308
-160 -277 -160 23 0 34 4 29 11 -3 5 -1 7 5 3 9 -6 1079 519 1110 544 9 9 12
-291 12 -1495 l0 -1505 -1507 -754 c-830 -414 -1514 -751 -1520 -749 -10 4
-13 99 -15 426 0 232 -4 400 -8 372 -4 -27 -9 -48 -11 -45 -2 3 -6 506 -9
1119 l-5 1114 -735 368 c-404 203 -742 369 -750 369 -8 1 -683 -333 -1500
-741 l-1485 -741 -1473 736 c-810 405 -1480 736 -1490 736 -9 -1 -343 -164
-742 -363 l-725 -362 -5 -1115 c-3 -613 -7 -1117 -9 -1120 -2 -3 -7 11 -11 30
-4 19 -8 -148 -9 -372 -1 -315 -4 -407 -13 -411 -7 -2 -691 335 -1520 749
l-1508 754 0 1505 c0 1204 3 1504 13 1495 19 -16 1080 -543 1095 -543 6 0 12
-5 12 -10 0 -5 8 -7 19 -4 10 2 26 0 35 -5 9 -5 16 -5 16 -1 0 5 -53 35 -117
67 -266 131 -543 279 -538 287 14 22 242 -86 1437 -683 571 -285 1043 -518
1049 -518 6 0 337 163 735 361 l724 362 0 1477 c0 812 3 1480 7 1483 11 12 29
3 456 -209z m1262 -5164 c28 -13 229 -112 448 -221 272 -136 408 -199 430
-199 39 0 -29 36 -763 406 -846 426 -945 477 -931 482 7 2 488 -232 1068 -522
580 -289 1060 -526 1068 -526 8 0 487 236 1066 525 578 289 1055 525 1060 525
17 0 9 -15 -14 -25 -58 -28 -1542 -779 -1617 -819 -69 -37 -79 -46 -55 -45 41
2 106 29 98 42 -3 6 -1 7 5 3 6 -3 567 270 1246 608 l1236 614 -2 -1501 -3
-1502 -1500 -752 c-825 -414 -1509 -752 -1520 -752 -11 0 -695 338 -1520 752
l-1500 752 -3 1503 -2 1502 827 -414 c456 -227 851 -424 878 -436z"/>
<path d="M34465 75464 c-65 -18 -216 -72 -318 -115 -110 -46 -2108 -1039
-2134 -1061 -36 -29 71 -130 245 -233 68 -40 605 -315 1195 -610 l1072 -538
1025 512 c1132 566 1197 600 1320 679 131 84 207 165 177 190 -22 18 -2010
1008 -2117 1055 -226 97 -392 140 -465 121z"/>
<path d="M43445 75452 c-98 -30 -224 -77 -320 -120 -105 -46 -2074 -1029
-2092 -1044 -30 -25 46 -106 177 -190 123 -79 188 -113 1320 -679 l1025 -512
1072 538 c590 295 1127 570 1195 610 174 103 281 204 245 233 -26 22 -2024
1015 -2134 1061 -270 114 -377 136 -488 103z"/>
<path d="M37335 74039 c-116 -21 -191 -57 -1538 -730 l-1168 -585 0 -1224 c0
-745 4 -1264 10 -1325 10 -101 26 -165 41 -165 22 0 2243 1119 2361 1190 74
44 169 108 211 140 l76 60 17 72 c9 40 21 109 27 153 12 97 23 2405 11 2415
-4 3 -26 3 -48 -1z"/>
<path d="M40734 73977 c-3 -8 -3 -504 -1 -1103 3 -1162 3 -1163 54 -1366 18
-74 35 -94 153 -184 91 -69 129 -94 260 -169 124 -72 2148 -1085 2167 -1085
16 0 43 73 60 165 13 67 16 273 20 1282 l5 1202 -1079 539 c-1218 607 -1305
650 -1429 691 -108 36 -202 48 -210 28z"/>
<path d="M37556 71277 c-3 -11 -4 -22 -2 -24 6 -6 979 -484 990 -486 6 -1 13
-5 16 -8 10 -11 69 -18 75 -8 4 5 3 8 -2 7 -5 -2 -60 25 -123 58 -63 34 -302
156 -531 272 -389 197 -417 209 -423 189z"/>
<path d="M39986 71023 c-434 -219 -524 -268 -506 -275 14 -5 31 -3 48 7 15 8
247 122 516 255 269 132 491 242 493 244 5 5 -8 36 -16 36 -3 0 -244 -121
-535 -267z"/>
<path d="M39440 70730 c-9 -6 -10 -10 -3 -10 6 0 15 5 18 10 8 12 4 12 -15 0z"/>
<path d="M29905 73191 c-126 -40 -187 -63 -290 -109 -104 -46 -2074 -1029
-2092 -1044 -32 -26 60 -120 200 -206 121 -75 306 -169 1372 -704 l941 -471
1034 518 c1049 525 1227 616 1335 688 110 73 180 153 152 175 -22 18 -2011
1009 -2117 1055 -158 68 -317 119 -385 123 -46 3 -81 -3 -150 -25z"/>
<path d="M32875 71827 c-98 -35 -292 -129 -1457 -710 l-1288 -641 0 -1175 c0
-1017 9 -1563 24 -1578 7 -7 55 17 1166 572 1279 639 1256 627 1472 766 l96
63 11 110 c6 61 13 140 17 176 7 77 13 2191 7 2333 -2 53 -7 97 -11 96 -4 -1
-20 -6 -37 -12z"/>
<path d="M47921 73195 c-190 -58 -294 -107 -1386 -652 -555 -278 -1011 -507
-1013 -508 -9 -8 31 -65 66 -97 113 -102 173 -134 1437 -766 l1030 -515 960
481 c1034 519 1271 641 1378 709 122 78 203 167 174 191 -22 18 -2010 1009
-2117 1055 -158 68 -317 119 -385 123 -44 3 -82 -3 -144 -21z"/>
<path d="M45200 70694 c0 -1208 5 -1338 61 -1512 17 -51 187 -174 415 -299
231 -128 2217 -1114 2225 -1106 5 5 17 43 26 84 15 66 17 207 20 1344 l4 1270
-1188 592 c-1381 687 -1396 695 -1515 709 l-48 6 0 -1088z"/>
<path d="M25430 70951 c-76 -23 -221 -77 -323 -122 -87 -38 -2067 -1027 -2084
-1041 -31 -25 58 -119 193 -202 110 -68 612 -325 1535 -786 l785 -392 1005
502 c1125 562 1242 623 1349 693 124 82 196 161 167 185 -22 18 -2010 1009
-2117 1055 -155 67 -317 119 -385 123 -40 3 -82 -3 -125 -15z"/>
<path d="M28521 67261 c-1 -28 3 -41 8 -35 6 5 6 24 1 44 l-8 35 -1 -44z"/>
<path d="M28000 66526 c0 -2 7 -7 16 -10 8 -3 12 -2 9 4 -6 10 -25 14 -25 6z"/>
<path d="M52439 70950 c-71 -21 -265 -94 -345 -130 -88 -40 -2049 -1022 -2061
-1032 -28 -23 37 -96 153 -175 106 -72 236 -140 1308 -676 l1060 -530 890 446
c1049 525 1306 657 1423 729 140 86 232 180 200 206 -23 19 -2016 1012 -2120
1056 -163 69 -315 118 -382 122 -39 3 -82 -3 -126 -16z"/>
<path d="M49687 69443 c-8 -183 -5 -1867 3 -2068 11 -239 17 -301 37 -398 15
-73 19 -81 62 -115 25 -20 48 -40 51 -43 5 -7 36 -26 212 -132 104 -63 2337
-1187 2358 -1187 14 0 30 95 39 240 5 74 9 664 10 1310 l1 1176 -1237 616
c-1226 611 -1311 652 -1428 689 -105 33 -102 36 -108 -88z"/>
<path d="M20920 68697 c-105 -33 -200 -68 -305 -115 -102 -45 -2073 -1029
-2092 -1044 -28 -22 41 -102 153 -177 104 -70 323 -183 1359 -703 l1000 -501
1005 502 c1077 539 1244 624 1330 680 73 47 68 44 123 92 58 51 83 92 64 107
-22 18 -2010 1009 -2117 1055 -154 67 -317 119 -385 123 -44 3 -81 -2 -135
-19z"/>
<path d="M57000 68714 c-78 -16 -228 -68 -350 -121 -106 -46 -2095 -1037
-2117 -1055 -30 -25 46 -107 177 -190 122 -78 243 -140 1349 -694 l995 -497
890 446 c1035 519 1302 655 1419 726 139 84 236 183 204 209 -13 11 -1872 941
-2020 1011 -146 69 -321 134 -437 164 -44 11 -66 11 -110 1z"/>
<path d="M54186 67288 c-11 -53 -7 -2079 4 -2261 9 -145 24 -263 45 -363 6
-29 124 -117 285 -214 74 -44 643 -335 1265 -646 l1129 -566 13 37 c28 81 33
307 33 1496 l0 1209 -1137 568 c-1403 699 -1433 714 -1560 750 l-71 20 -6 -30z"/>
<path d="M16425 66449 c-171 -50 -392 -153 -1340 -627 -555 -277 -1025 -513
-1042 -524 -32 -19 -32 -20 -18 -47 21 -41 101 -110 196 -168 127 -78 308
-171 1354 -695 l961 -481 1024 513 c1132 565 1221 611 1330 683 124 82 196
161 167 185 -22 18 -2010 1009 -2117 1055 -160 69 -317 119 -385 123 -40 3
-83 -3 -130 -17z"/>
<path d="M61485 66464 c-70 -19 -240 -80 -332 -120 -112 -48 -2098 -1038
-2120 -1056 -19 -16 -17 -22 32 -76 50 -56 177 -141 335 -225 58 -30 566 -286
1130 -568 l1024 -512 1001 501 c1289 646 1378 695 1476 799 42 44 52 68 36 81
-23 19 -2017 1012 -2122 1057 -225 96 -387 138 -460 119z"/>
<path d="M58675 65079 c-4 -6 -6 -1882 -3 -2274 1 -64 30 -331 41 -374 12 -46
20 -57 78 -100 78 -59 168 -115 319 -198 213 -118 2313 -1164 2321 -1156 25
25 29 235 29 1468 l-1 1290 -827 412 c-455 227 -1039 518 -1298 646 -439 219
-646 308 -659 286z"/>
<path d="M11975 64213 c-53 -12 -234 -76 -321 -113 -83 -36 -2131 -1054 -2143
-1066 -9 -8 24 -60 59 -92 110 -103 223 -163 1508 -805 l962 -482 1063 532
c1097 550 1242 626 1357 713 58 45 121 123 108 135 -6 6 -1977 990 -2055 1026
-260 120 -448 173 -538 152z"/>
<path d="M65880 64182 c-63 -21 -160 -58 -215 -82 -84 -35 -2131 -1054 -2144
-1066 -8 -8 24 -58 59 -92 98 -96 174 -136 1498 -799 l973 -488 992 497 c1295
648 1377 692 1484 797 37 37 61 76 51 86 -11 11 -2062 1031 -2142 1065 -158
67 -305 112 -376 116 -55 3 -83 -2 -180 -34z"/>
<path d="M36159 62718 c-1 -400 3 -2155 6 -2211 6 -97 24 -253 37 -319 12 -57
12 -57 109 -128 53 -38 100 -70 104 -70 3 0 21 -11 38 -24 18 -13 46 -30 62
-38 17 -8 82 -43 145 -78 229 -125 2253 -1131 2260 -1123 27 30 30 196 30
1455 l0 1303 -903 449 c-496 247 -1081 538 -1299 647 -360 179 -521 249 -571
249 -15 0 -17 -12 -18 -112z"/>
<path d="M7368 61930 c-64 -21 -163 -59 -220 -83 -185 -80 -2138 -1061 -2138
-1075 0 -27 74 -100 161 -157 118 -79 310 -178 1346 -698 l1023 -512 1032 517
c568 285 1080 543 1138 574 132 71 255 152 298 195 34 33 67 87 59 95 -13 13
-2038 1019 -2132 1059 -167 72 -337 125 -398 125 -34 0 -93 -14 -169 -40z"/>
<path d="M7485 57473 c-99 -27 -282 -94 -385 -140 -228 -104 -2100 -1044
-2100 -1056 0 -39 112 -139 237 -211 123 -71 376 -200 1345 -686 l958 -480
1062 533 c585 293 1117 564 1184 601 145 81 240 152 274 202 l24 36 -23 20
c-36 29 -1940 979 -2109 1052 -238 103 -400 148 -467 129z"/>
<path d="M4724 55976 c-3 -8 -3 -506 -1 -1107 4 -1138 4 -1138 48 -1335 18
-80 26 -96 57 -126 73 -68 176 -143 304 -219 119 -72 2203 -1119 2226 -1119
15 0 40 70 58 163 14 72 17 230 21 1284 l5 1202 -1109 554 c-609 304 -1137
566 -1173 582 -160 71 -196 85 -254 104 -81 26 -175 34 -182 17z"/>
<path d="M4005 53037 c-275 -139 -511 -259 -523 -268 -15 -11 -19 -19 -13 -24
6 -3 11 0 11 7 0 9 2 10 8 1 5 -7 172 70 521 243 283 140 516 256 518 258 5 5
-8 36 -16 36 -3 -1 -231 -114 -506 -253z"/>
<path d="M3446 52737 c3 -10 9 -15 12 -12 3 3 0 11 -7 18 -10 9 -11 8 -5 -6z"/>
<path d="M70380 61931 c-63 -21 -160 -58 -215 -81 -146 -62 -2145 -1062 -2145
-1073 0 -21 58 -87 114 -129 128 -95 158 -111 1413 -740 l1003 -503 917 459
c1274 636 1440 724 1549 823 32 30 71 89 63 97 -12 12 -2076 1039 -2151 1069
-154 64 -300 109 -368 113 -55 4 -82 -1 -180 -35z"/>
<path d="M70525 57475 c-5 -2 -57 -18 -115 -36 -206 -64 -204 -63 -1382 -652
-549 -274 -998 -504 -998 -511 0 -21 52 -82 105 -124 88 -70 270 -165 1363
-714 l1072 -538 1038 520 c1023 513 1201 605 1335 691 73 47 167 138 167 162
0 10 -357 194 -1007 519 -555 277 -1037 516 -1073 532 -253 111 -448 170 -505
151z"/>
<path d="M73390 56042 c-113 -16 -216 -65 -1563 -738 l-1158 -579 0 -1230 c0
-793 3 -1264 10 -1325 10 -92 27 -160 39 -160 11 0 1684 833 2047 1020 297
152 398 212 521 307 l82 62 17 76 c9 41 21 112 27 157 13 98 23 2398 11 2408
-4 3 -19 4 -33 2z"/>
<path d="M73582 53269 c-12 -19 14 -33 494 -270 389 -192 514 -249 538 -247
26 2 -26 32 -294 167 -179 90 -415 210 -526 267 -192 98 -201 102 -212 83z"/>
<path d="M75446 52737 c3 -10 9 -15 12 -12 3 3 0 11 -7 18 -10 9 -11 8 -5 -6z"/>
<path d="M2975 59713 c-36 -9 -229 -74 -260 -88 -16 -7 -64 -28 -105 -46 -84
-36 -2068 -1026 -2087 -1041 -28 -23 50 -111 163 -183 109 -71 295 -166 1329
-683 l1029 -515 1021 511 c1075 539 1253 630 1350 695 74 49 155 132 155 158
0 15 -201 119 -1017 527 -560 279 -1076 532 -1146 561 -230 94 -352 123 -432
104z"/>
<path d="M74865 59676 c-71 -24 -184 -67 -250 -96 -212 -94 -2095 -1041 -2095
-1055 0 -32 73 -104 169 -169 100 -67 232 -134 1336 -688 l1020 -511 925 464
c985 493 1256 632 1386 710 136 82 233 181 201 207 -14 12 -1974 992 -2056
1029 -201 89 -397 153 -466 153 -22 -1 -98 -20 -170 -44z"/>
<path d="M36173 57138 c4 -1153 4 -1187 25 -1323 12 -76 24 -147 27 -156 9
-28 159 -135 340 -242 33 -20 573 -293 1200 -608 l1140 -571 12 42 c29 101 33
266 33 1471 l0 1229 -1117 558 c-1439 718 -1445 721 -1641 777 l-23 7 4 -1184z"/>
<path d="M11985 55233 c-78 -21 -238 -78 -330 -118 -107 -46 -2138 -1057
-2162 -1077 -10 -8 -10 -15 -1 -32 16 -31 89 -96 150 -135 29 -18 78 -49 108
-67 30 -19 558 -287 1172 -595 l1118 -559 1107 554 c1095 548 1287 650 1380
734 64 56 79 80 61 98 -19 18 -2034 1023 -2164 1079 -213 92 -376 136 -439
118z"/>
<path d="M9193 52628 c3 -1013 5 -1166 20 -1263 20 -133 38 -197 63 -222 56
-57 215 -163 409 -271 187 -105 2199 -1102 2207 -1094 4 4 16 39 25 78 15 62
17 195 20 1344 l4 1275 -1198 597 c-1329 662 -1428 708 -1525 708 l-29 0 4
-1152z"/>
<path d="M65990 55225 c-84 -23 -194 -63 -309 -112 -104 -44 -2134 -1056
-2158 -1075 -7 -6 -13 -15 -13 -19 0 -24 129 -131 231 -192 63 -37 612 -317
1221 -623 l1108 -554 1087 544 c1088 545 1258 634 1367 716 71 54 112 109 93
126 -22 22 -2048 1030 -2184 1088 -149 62 -276 103 -343 111 -25 3 -69 -2
-100 -10z"/>
<path d="M68890 53820 c-89 -28 -97 -32 -1443 -703 l-1288 -641 4 -1321 c2
-726 8 -1340 11 -1365 11 -72 11 -71 52 -54 21 9 515 255 1098 547 584 291
1088 544 1121 560 153 77 446 253 466 281 9 11 17 73 29 226 10 113 17 2476 8
2485 -1 1 -28 -5 -58 -15z"/>
<path d="M36175 53606 c-4 -110 -5 -619 -2 -1131 6 -940 12 -1114 48 -1272 10
-48 18 -58 78 -106 97 -78 220 -153 421 -260 250 -131 2170 -1087 2184 -1087
12 0 28 124 36 275 5 93 10 683 10 1311 l0 1140 -1237 616 c-681 339 -1278
633 -1328 653 -49 20 -115 42 -146 49 l-57 14 -7 -202z"/>
<path d="M16445 52989 c-176 -49 -404 -155 -1427 -667 -588 -293 -1068 -538
-1068 -545 0 -17 112 -121 162 -150 164 -97 480 -259 1391 -714 l1037 -518
1123 562 c617 309 1173 593 1236 630 109 65 231 166 231 190 0 11 -1729 882
-2065 1040 -187 88 -307 136 -425 169 -100 28 -104 28 -195 3z"/>
<path d="M13678 51447 c-10 -237 -8 -1813 3 -2037 13 -304 16 -340 36 -433
l16 -79 66 -53 c135 -108 382 -240 1474 -786 615 -307 1122 -559 1126 -559 17
0 32 104 41 285 5 99 10 689 10 1311 l0 1130 -1237 616 c-1207 601 -1355 671
-1458 697 -27 7 -55 14 -61 16 -8 3 -13 -31 -16 -108z"/>
<path d="M61465 52985 c-115 -34 -239 -83 -405 -160 -287 -133 -2080 -1037
-2080 -1049 0 -18 88 -99 158 -145 115 -75 348 -194 1395 -718 l1037 -518
1038 518 c1079 540 1263 635 1398 723 77 51 154 123 154 144 0 15 -2117 1069
-2265 1127 -138 55 -293 103 -329 102 -11 0 -57 -11 -101 -24z"/>
<path d="M64531 48914 c0 -11 3 -14 6 -6 3 7 2 16 -1 19 -3 4 -6 -2 -5 -13z"/>
<path d="M63966 48483 c-6 -14 -5 -15 5 -6 7 7 10 15 7 18 -3 3 -9 -2 -12 -12z"/>
<path d="M21015 50793 c-51 -11 -192 -61 -315 -113 -74 -31 -625 -302 -1223
-602 l-1089 -544 44 -42 c99 -95 185 -141 1466 -781 l1142 -571 1103 551
c1181 591 1357 682 1464 763 74 57 84 74 54 93 -55 34 -2151 1077 -2246 1117
-60 26 -119 51 -130 56 -40 18 -191 67 -220 72 -16 3 -39 3 -50 1z"/>
<path d="M18175 49288 c-4 -19 -5 -549 -2 -1178 3 -996 6 -1159 20 -1255 31
-207 31 -205 95 -255 190 -149 361 -239 2222 -1164 l395 -197 13 43 c28 97 32
280 32 1475 l0 1223 -1137 568 c-1411 704 -1475 734 -1591 757 -12 2 -26 6
-32 10 -5 3 -12 -9 -15 -27z"/>
<path d="M57045 50793 c-56 -12 -195 -62 -320 -116 -128 -55 -2264 -1117
-2292 -1139 -16 -13 6 -38 83 -93 111 -80 303 -179 1432 -744 l1122 -561 1178
589 c647 324 1223 619 1280 654 106 66 182 127 182 146 0 12 -1991 1013 -2225
1119 -139 63 -333 135 -390 144 -16 3 -39 3 -50 1z"/>
<path d="M41875 49321 c-107 -38 -261 -113 -1478 -719 l-1258 -627 4 -1315 c3
-723 8 -1337 11 -1365 11 -77 10 -76 52 -59 38 16 2060 1027 2274 1137 121 62
229 126 356 209 l62 41 12 124 c7 69 15 191 19 272 9 201 12 1981 3 2168 l-7
152 -50 -18z"/>
<path d="M36190 48197 c0 -1147 5 -1283 49 -1467 l18 -75 100 -75 c55 -41 138
-99 184 -128 117 -73 2340 -1185 2349 -1175 5 4 16 42 26 83 16 69 18 174 21
1345 l4 1271 -1198 596 c-1332 663 -1428 708 -1525 708 l-28 0 0 -1083z"/>
<path d="M3436 48237 c3 -10 9 -15 12 -12 3 3 0 11 -7 18 -10 9 -11 8 -5 -6z"/>
<path d="M75436 48237 c3 -10 9 -15 12 -12 3 3 0 11 -7 18 -10 9 -11 8 -5 -6z"/>
<path d="M25465 48605 c-33 -12 -118 -49 -190 -81 -180 -81 -2485 -1234 -2485
-1243 0 -7 74 -52 200 -121 41 -22 632 -319 1312 -660 l1238 -620 1227 615
c676 338 1266 635 1313 660 131 71 210 118 210 127 0 11 -2323 1169 -2565
1278 -75 34 -174 70 -188 69 -6 0 -39 -11 -72 -24z"/>
<path d="M22666 47082 c-14 -24 -9 -2244 5 -2412 13 -149 37 -279 54 -297 9
-8 39 -31 68 -51 28 -19 54 -38 57 -41 5 -7 127 -80 185 -112 17 -9 73 -40
125 -69 105 -58 2248 -1130 2259 -1130 26 0 31 218 31 1471 l0 1294 -1263 628
c-694 346 -1289 640 -1322 654 -98 41 -194 72 -199 65z"/>
<path d="M52450 48587 c-58 -24 -179 -79 -270 -122 -312 -150 -2360 -1176
-2360 -1183 0 -7 97 -65 220 -132 41 -22 627 -317 1303 -655 l1227 -615 1228
614 c1151 577 1522 768 1522 786 0 13 -2343 1182 -2565 1281 -72 32 -173 69
-188 69 -6 0 -59 -20 -117 -43z"/>
<path d="M41870 44792 c-99 -14 -210 -66 -1492 -705 l-1228 -612 0 -1227 c0
-1213 4 -1389 34 -1460 l11 -28 125 59 c212 99 2021 1008 2156 1082 137 76
276 168 337 223 35 31 40 42 57 128 10 51 24 165 29 254 13 181 15 2281 3
2287 -4 1 -18 1 -32 -1z"/>
<path d="M36227 44734 c-4 -4 -7 -470 -7 -1035 0 -845 3 -1052 15 -1170 30
-281 41 -318 114 -387 71 -68 271 -201 426 -284 189 -101 2067 -1038 2081
-1038 14 0 38 60 55 135 22 101 28 435 29 1463 l0 1052 -1117 558 c-1130 564
-1281 637 -1408 677 -77 25 -177 40 -188 29z"/>
<path d="M35330 41622 l-735 -367 -3 -742 -2 -742 1472 -737 c810 -405 1476
-741 1480 -748 4 -6 8 -191 8 -412 0 -220 3 -887 7 -1481 l6 -1080 716 -358
c679 -339 771 -383 771 -367 0 4 333 174 740 377 l740 370 0 1472 c0 1175 3
1475 13 1484 7 7 678 345 1492 753 l1480 741 2 735 2 735 -734 365 c-404 201
-742 367 -752 369 -10 2 -686 -331 -1503 -739 l-1485 -742 -1483 741 c-816
407 -1486 741 -1490 741 -4 -1 -338 -166 -742 -368z m2127 -1825 c1043 -519
1102 -548 1143 -547 29 1 32 2 17 11 -9 5 -23 7 -30 3 -6 -4 -9 -3 -4 1 10 12
-2 18 -883 462 -432 218 -787 398 -789 400 -2 1 -2 5 0 8 8 8 55 -15 1102
-537 559 -280 1024 -508 1032 -508 8 0 483 234 1056 520 573 286 1044 518
1047 515 3 -3 12 1 21 7 14 11 14 10 1 -4 -8 -9 -321 -170 -695 -359 -709
-356 -1005 -508 -1005 -514 0 -6 24 0 39 9 10 6 12 5 7 -2 -4 -7 -4 -12 0 -12
15 0 313 146 1058 517 433 217 796 392 805 391 23 -5 -10 -22 -1206 -618
l-1072 -535 -1 -1105 c-1 -608 -5 -1114 -9 -1125 -17 -42 -21 147 -21 953 0
731 -2 833 -15 838 -8 4 -15 15 -15 25 0 10 -4 19 -10 19 -7 0 -10 -310 -11
-907 0 -845 -5 -1026 -22 -899 -4 27 -7 533 -7 1125 l0 1076 -1140 568 c-627
313 -1140 573 -1140 578 0 5 4 9 10 9 5 0 337 -163 737 -363z"/>
<path d="M34399 39450 c-97 -29 -201 -70 -339 -131 -156 -69 -2070 -1031
-2070 -1040 0 -35 59 -97 151 -160 100 -68 353 -199 1381 -714 l1007 -505 958
480 c1243 623 1349 678 1465 765 66 50 118 107 118 129 -1 14 52 -13 -1060
544 -536 268 -1031 512 -1099 540 -143 61 -338 122 -384 121 -18 0 -75 -13
-128 -29z"/>
<path d="M43404 39445 c-189 -58 -327 -123 -1334 -627 -1112 -557 -1059 -530
-1060 -544 0 -22 52 -79 118 -129 116 -87 222 -142 1465 -765 l958 -480 1007
505 c1028 515 1281 646 1381 714 92 63 151 125 151 160 0 9 -1914 971 -2070
1040 -208 92 -412 161 -474 161 -17 -1 -81 -16 -142 -35z"/>
<path d="M37335 38039 c-116 -21 -191 -57 -1538 -730 l-1168 -585 0 -1224 c0
-745 4 -1264 10 -1325 10 -101 26 -165 41 -165 22 0 2243 1119 2361 1190 74
44 169 108 211 140 l76 60 17 72 c9 40 21 109 27 153 12 97 23 2405 11 2415
-4 3 -26 3 -48 -1z"/>
<path d="M40734 37977 c-3 -8 -3 -504 -1 -1103 3 -1162 3 -1163 54 -1366 18
-74 35 -94 153 -184 91 -69 129 -94 260 -169 124 -72 2148 -1085 2167 -1085
16 0 43 73 60 165 13 67 16 273 20 1282 l5 1202 -1079 539 c-1218 607 -1305
650 -1429 691 -108 36 -202 48 -210 28z"/>
<path d="M39981 35030 c-293 -148 -535 -271 -537 -273 -3 -3 6 -7 20 -9 17 -4
169 67 545 253 438 216 521 261 521 278 0 12 -3 21 -7 21 -5 0 -248 -122 -542
-270z"/>
<path d="M37551 35268 c-11 -18 20 -35 493 -268 278 -137 511 -250 518 -251
85 -11 63 1 -563 318 -411 208 -436 220 -448 201z"/>
<path d="M159 44718 c-1 -400 3 -2155 6 -2211 6 -97 24 -253 37 -319 12 -57
12 -57 109 -128 53 -38 100 -70 104 -70 3 0 21 -11 38 -24 18 -13 46 -30 62
-38 17 -8 82 -43 145 -78 229 -125 2253 -1131 2260 -1123 27 30 30 196 30
1455 l0 1303 -903 449 c-496 247 -1081 538 -1299 647 -360 179 -521 249 -571
249 -15 0 -17 -12 -18 -112z"/>
<path d="M72167 44723 c-5 -148 1 -2107 7 -2213 7 -116 23 -253 38 -324 l13
-58 95 -67 c110 -77 149 -101 344 -208 102 -56 2161 -1086 2229 -1115 28 -12
39 -13 42 -5 22 61 25 252 25 1447 l-1 1305 -847 422 c-1498 747 -1766 878
-1837 901 -109 34 -103 39 -108 -85z"/>
<path d="M72185 40300 c-3 -5 -4 -533 -2 -1172 4 -1180 5 -1222 43 -1407 17
-85 12 -78 149 -175 180 -127 244 -161 1529 -803 855 -428 989 -493 1006 -493
15 0 29 64 40 175 6 68 10 576 10 1333 l0 1222 -1077 538 c-1252 625 -1470
730 -1576 766 -83 28 -112 32 -122 16z"/>
<path d="M29985 37233 c-79 -21 -238 -78 -329 -118 -130 -56 -2145 -1061
-2164 -1079 -18 -18 -3 -42 61 -98 93 -84 285 -186 1380 -734 l1107 -554 1118
559 c614 308 1142 576 1172 595 30 18 79 49 108 67 61 39 134 104 150 135 9
17 9 24 -1 32 -24 20 -2055 1031 -2162 1077 -214 92 -377 136 -440 118z"/>
<path d="M32875 35827 c-98 -35 -292 -129 -1457 -710 l-1288 -641 0 -1175 c0
-1017 9 -1563 24 -1578 7 -7 55 17 1166 572 1279 639 1256 627 1472 766 l96
63 11 110 c6 61 13 140 17 176 7 77 13 2191 7 2333 -2 53 -7 97 -11 96 -4 -1
-20 -6 -37 -12z"/>
<path d="M47910 37206 c-58 -18 -161 -56 -228 -85 -116 -49 -2153 -1061 -2179
-1083 -17 -14 -1 -43 51 -91 108 -100 154 -125 1469 -783 l1027 -514 1108 555
c1064 533 1268 640 1359 714 41 32 100 107 92 115 -2 2 -481 242 -1064 533
-1016 507 -1226 605 -1398 652 -100 27 -112 26 -237 -13z"/>
<path d="M45200 34694 c0 -1208 5 -1338 61 -1512 17 -51 187 -174 415 -299
231 -128 2217 -1114 2225 -1106 5 5 17 43 26 84 15 66 17 207 20 1344 l4 1270
-1188 592 c-1381 687 -1396 695 -1515 709 l-48 6 0 -1088z"/>
<path d="M25435 34985 c-115 -33 -238 -82 -420 -168 -336 -158 -2065 -1029
-2065 -1040 0 -24 122 -125 231 -190 63 -37 619 -321 1236 -630 l1123 -562
1037 518 c911 455 1227 617 1391 714 50 29 162 133 162 150 0 18 -2109 1068
-2280 1136 -147 57 -278 98 -315 96 -11 0 -56 -11 -100 -24z"/>
<path d="M28521 31261 c-1 -28 3 -41 8 -35 6 5 6 24 1 44 l-8 35 -1 -44z"/>
<path d="M28000 30526 c0 -2 7 -7 16 -10 8 -3 12 -2 9 4 -6 10 -25 14 -25 6z"/>
<path d="M52442 34984 c-46 -13 -142 -47 -215 -76 -147 -58 -2267 -1113 -2267
-1128 0 -21 74 -91 153 -142 134 -89 311 -181 1400 -725 l1037 -518 1123 562
c617 309 1173 592 1236 630 110 65 231 165 231 191 0 16 -2104 1066 -2265
1129 -138 55 -293 103 -329 102 -11 0 -58 -11 -104 -25z"/>
<path d="M49687 33443 c-8 -183 -5 -1867 3 -2068 11 -239 17 -301 37 -398 15
-73 19 -81 62 -115 25 -20 48 -40 51 -43 5 -7 36 -26 212 -132 104 -63 2337
-1187 2358 -1187 14 0 30 95 39 240 5 74 9 664 10 1310 l1 1176 -1237 616
c-1226 611 -1311 652 -1428 689 -105 33 -102 36 -108 -88z"/>
<path d="M21011 32792 c-25 -4 -180 -56 -216 -72 -11 -5 -69 -30 -130 -56 -95
-40 -2191 -1083 -2246 -1117 -30 -19 -20 -36 54 -93 107 -81 283 -172 1464
-763 l1103 -551 1142 571 c1281 640 1367 686 1466 781 l44 42 -1089 544
c-1056 529 -1271 631 -1438 685 -95 30 -122 35 -154 29z"/>
<path d="M57005 32788 c-22 -4 -47 -11 -55 -15 -8 -3 -17 -7 -20 -8 -46 -12
-209 -77 -336 -136 -76 -34 -2187 -1089 -2194 -1096 -9 -9 91 -87 194 -151 56
-35 631 -329 1278 -653 l1178 -589 1117 559 c615 307 1165 584 1223 616 189
103 308 191 297 218 -6 14 -2086 1055 -2264 1133 -130 57 -298 118 -348 126
-16 3 -48 1 -70 -4z"/>
<path d="M54186 31288 c-11 -53 -7 -2079 4 -2261 9 -145 24 -263 45 -363 6
-29 124 -117 285 -214 74 -44 643 -335 1265 -646 l1129 -566 13 37 c28 81 33
307 33 1496 l0 1209 -1137 568 c-1403 699 -1433 714 -1560 750 l-71 20 -6 -30z"/>
<path d="M16455 30602 c-88 -35 -113 -47 -310 -141 -301 -143 -2355 -1172
-2355 -1179 0 -9 79 -56 210 -127 47 -25 637 -322 1313 -660 l1227 -615 1238
620 c680 341 1271 638 1312 660 126 69 200 114 200 121 0 9 -2306 1163 -2485
1243 -132 59 -252 106 -270 106 -5 -1 -41 -13 -80 -28z"/>
<path d="M61455 30599 c-84 -35 -67 -27 -295 -135 -271 -128 -2360 -1175
-2360 -1183 0 -20 288 -169 1532 -792 l1218 -609 1237 620 c681 341 1271 638
1312 660 123 67 201 114 201 122 0 9 -2359 1188 -2485 1242 -196 84 -251 106
-270 105 -11 0 -51 -14 -90 -30z"/>
<path d="M58675 29079 c-4 -6 -6 -1880 -3 -2274 1 -64 30 -331 41 -374 12 -46
20 -57 78 -100 78 -59 168 -115 319 -198 215 -120 2313 -1164 2321 -1156 26
26 30 245 27 1478 l-3 1280 -820 410 c-452 226 -1037 517 -1300 648 -451 223
-647 308 -660 286z"/>
<path d="M36141 25668 c1 -898 4 -1193 15 -1293 18 -174 33 -244 55 -255 9 -6
23 -16 31 -22 35 -34 145 -107 258 -171 131 -75 337 -180 942 -483 378 -189
695 -348 705 -354 40 -22 747 -370 753 -370 3 0 11 37 18 83 9 61 12 423 12
1383 l-1 1299 -847 422 c-466 232 -1054 525 -1307 650 -415 206 -566 273 -618
273 -17 0 -17 -63 -16 -1162z"/>
<path d="M254 22199 c-5 -8 -10 -400 -12 -879 -4 -1094 7 -1344 68 -1542 18
-58 28 -74 82 -123 81 -72 204 -156 353 -240 149 -84 2070 -1045 2088 -1045
17 0 44 57 63 134 25 101 35 599 32 1570 l-3 899 -975 488 c-1080 540 -1357
675 -1475 715 -95 32 -208 44 -221 23z"/>
<path d="M36155 22286 c-4 -17 -4 -546 -2 -1176 3 -999 6 -1159 20 -1255 32
-211 28 -201 126 -276 177 -135 167 -129 1486 -790 l1099 -551 12 35 c30 87
34 248 34 1473 l0 1235 -1187 592 c-1274 635 -1377 685 -1502 721 l-81 24 -5
-32z"/>
<path d="M11985 19233 c-78 -21 -238 -78 -330 -118 -107 -46 -2138 -1057
-2162 -1077 -10 -8 -10 -15 -1 -32 16 -31 89 -96 150 -135 29 -18 78 -49 108
-67 30 -19 558 -287 1172 -595 l1118 -559 1107 554 c1095 548 1287 650 1380
734 64 56 79 80 61 98 -19 18 -2034 1023 -2164 1079 -213 92 -376 136 -439
118z"/>
<path d="M9243 16618 c4 -1163 3 -1145 53 -1344 15 -59 24 -76 63 -112 72 -68
175 -143 306 -221 103 -62 2041 -1040 2148 -1085 l38 -16 21 46 c50 114 50
125 55 1394 l4 1185 -1138 567 c-626 312 -1176 583 -1222 603 -110 47 -213 75
-279 75 l-53 0 4 -1092z"/>
<path d="M66005 19235 c-5 -2 -41 -13 -80 -25 -94 -28 -197 -67 -273 -101 -35
-16 -65 -29 -68 -29 -11 0 -2071 -1033 -2083 -1045 -11 -11 -9 -19 18 -52 84
-105 178 -156 1454 -794 l1077 -539 1108 555 c1067 534 1271 642 1361 716 40
33 98 106 90 113 -23 22 -2157 1076 -2254 1113 -188 74 -305 103 -350 88z"/>
<path d="M68660 17686 c-118 -35 -143 -47 -1352 -649 l-1148 -571 0 -1071 c0
-588 5 -1135 9 -1215 10 -158 30 -261 59 -310 l19 -31 999 500 c1211 606 1262
634 1446 789 86 72 95 90 122 242 32 178 36 311 36 1323 l0 1017 -57 -1 c-32
0 -92 -10 -133 -23z"/>
<path d="M36157 17674 c-10 -197 -8 -1791 3 -2029 12 -265 17 -321 37 -418
l16 -79 66 -53 c133 -106 378 -237 1474 -786 614 -307 1121 -559 1126 -559 17
0 32 104 41 285 5 99 10 689 10 1311 l0 1130 -1237 617 c-1203 599 -1399 691
-1487 703 l-43 6 -6 -128z"/>
<path d="M42022 15537 c-9 -25 -10 -42 -3 -54 8 -16 10 -15 16 8 4 15 5 39 3
55 -3 27 -3 27 -16 -9z"/>
<path d="M41426 14743 c-14 -14 -5 -23 13 -13 14 7 22 7 26 0 7 -11 25 -4 25
9 0 9 -55 12 -64 4z"/>
<path d="M16445 16989 c-176 -49 -404 -155 -1427 -667 -588 -293 -1068 -538
-1068 -545 0 -17 112 -121 162 -150 164 -97 480 -259 1391 -714 l1037 -518
1123 562 c617 309 1173 593 1236 630 109 65 231 166 231 190 0 11 -1729 882
-2065 1040 -187 88 -307 136 -425 169 -100 28 -104 28 -195 3z"/>
<path d="M13755 15444 c-13 -14 -15 -131 -15 -957 0 -1094 7 -1258 64 -1472
14 -52 24 -67 78 -118 90 -83 256 -191 463 -300 99 -52 588 -299 1087 -548
874 -437 908 -453 922 -434 18 25 44 107 58 182 7 37 12 480 15 1238 l4 1180
-1148 572 c-631 314 -1177 583 -1211 598 -142 60 -288 87 -317 59z"/>
<path d="M61515 17005 c-5 -2 -50 -15 -100 -30 -49 -15 -155 -54 -235 -88
-169 -70 -2220 -1094 -2220 -1108 0 -35 142 -144 305 -234 39 -21 86 -47 105
-58 80 -45 2171 -1087 2180 -1087 14 0 2204 1099 2315 1161 151 86 275 184
275 219 0 10 -1997 1011 -2160 1082 -242 107 -415 159 -465 143z"/>
<path d="M64240 15453 c-45 -7 -134 -33 -200 -59 -36 -14 -586 -285 -1223
-602 l-1158 -577 4 -1185 c3 -809 8 -1202 15 -1240 16 -76 41 -151 58 -175 14
-19 49 -2 1007 477 545 273 1046 527 1112 564 144 80 257 157 346 236 64 56
68 61 87 136 29 108 41 194 52 362 14 210 13 2047 -1 2056 -14 8 -66 12 -99 7z"/>
<path d="M21015 14793 c-51 -11 -192 -61 -315 -113 -74 -31 -625 -302 -1223
-602 l-1089 -544 44 -42 c99 -95 185 -141 1466 -781 l1142 -571 1103 551
c1181 591 1357 682 1464 763 74 57 84 74 54 93 -55 34 -2151 1077 -2246 1117
-60 26 -119 51 -130 56 -40 18 -191 67 -220 72 -16 3 -39 3 -50 1z"/>
<path d="M18255 13197 c-15 -12 -16 -94 -12 -1057 4 -1108 5 -1149 53 -1340
23 -92 25 -97 81 -149 83 -77 217 -167 378 -255 77 -43 578 -296 1112 -564
938 -469 973 -486 987 -467 18 25 44 107 58 182 7 37 12 480 15 1238 l4 1180
-1118 557 c-615 306 -1163 577 -1218 602 -153 68 -302 100 -340 73z"/>
<path d="M57025 14793 c-32 -7 -177 -54 -210 -68 -16 -8 -70 -30 -120 -51 -72
-30 -1956 -965 -2215 -1099 -36 -18 -66 -40 -68 -48 -4 -19 73 -80 197 -155
58 -35 631 -327 1273 -648 l1168 -584 1117 560 c1187 594 1296 650 1301 662 2
4 8 8 14 8 27 0 229 153 217 164 -18 16 -2214 1106 -2314 1148 -188 80 -318
120 -360 111z"/>
<path d="M59698 13195 c-38 -7 -107 -30 -155 -50 -49 -20 -605 -294 -1236
-608 l-1148 -572 4 -1180 c3 -758 8 -1201 15 -1238 14 -75 40 -157 58 -182 14
-19 49 -2 1007 477 1047 524 1177 592 1323 694 139 96 199 158 217 224 25 88
46 216 56 340 11 144 14 2070 3 2088 -13 20 -70 22 -144 7z"/>
<path d="M41855 13321 c-116 -42 -260 -112 -1465 -714 l-1265 -632 0 -1250 c0
-1207 4 -1478 23 -1497 10 -10 2230 1095 2432 1210 63 35 156 92 206 126 l92
61 6 55 c24 215 27 393 27 1479 0 646 -2 1175 -3 1177 -2 1 -26 -6 -53 -15z"/>
<path d="M36174 13276 c-3 -7 -3 -528 -1 -1157 4 -1216 6 -1263 58 -1435 16
-51 200 -184 424 -306 269 -147 2208 -1109 2217 -1100 5 5 16 45 25 88 15 70
17 229 20 1344 l4 1266 -1218 606 c-670 334 -1260 623 -1311 643 -124 47 -211
68 -218 51z"/>
<path d="M25465 12605 c-33 -12 -118 -49 -190 -81 -180 -81 -2485 -1234 -2485
-1243 0 -7 74 -52 200 -121 41 -22 632 -319 1312 -660 l1238 -620 1227 615
c676 338 1266 635 1313 660 131 71 210 118 210 127 0 11 -2323 1169 -2565
1278 -75 34 -174 70 -188 69 -6 0 -39 -11 -72 -24z"/>
<path d="M22747 10864 c-3 -49 -5 -514 -3 -1034 3 -1037 6 -1094 66 -1320 18
-68 128 -169 303 -278 128 -80 273 -155 1222 -628 523 -261 958 -479 967 -484
32 -18 44 -11 66 38 59 130 62 204 62 1459 l0 1103 -947 472 c-1477 737 -1493
744 -1654 755 l-76 6 -6 -89z"/>
<path d="M52440 12592 c-52 -21 -169 -74 -260 -117 -298 -143 -2380 -1187
-2380 -1193 0 -21 311 -183 1542 -798 l1208 -604 1248 624 c1144 573 1502 758
1502 778 0 12 -2399 1207 -2560 1276 -80 34 -159 64 -175 67 -21 4 -59 -7
-125 -33z"/>
<path d="M55155 10930 c-142 -37 -213 -71 -1507 -718 l-988 -493 0 -1102 c0
-1254 3 -1329 62 -1460 19 -42 25 -47 46 -42 30 7 1863 923 2027 1013 251 136
432 268 469 341 18 34 53 201 67 316 13 106 24 1857 13 2044 l-7 121 -56 -1
c-31 0 -87 -8 -126 -19z"/>
<path d="M27253 8688 c-4 -7 -9 -404 -11 -883 -4 -1088 7 -1339 68 -1537 16
-52 29 -74 67 -109 102 -95 214 -170 427 -286 148 -81 1990 -1001 2018 -1008
21 -5 27 0 46 42 59 131 62 203 62 1461 l0 1103 -1122 558 c-1118 556 -1269
627 -1390 656 -77 18 -154 19 -165 3z"/>
<path d="M50655 8681 c-143 -39 -238 -84 -1557 -744 l-938 -469 0 -1101 c0
-1065 5 -1266 32 -1376 16 -66 48 -131 64 -131 16 0 1861 921 2039 1018 213
115 373 226 443 306 41 47 69 153 93 351 14 118 24 1928 12 2070 l-8 90 -55 2
c-30 1 -86 -6 -125 -16z"/>
<path d="M41855 8793 c-51 -12 -154 -46 -209 -69 -34 -14 -614 -301 -1289
-637 l-1228 -612 4 -1285 c2 -707 7 -1303 11 -1325 10 -56 26 -105 34 -105 13
0 2199 1095 2292 1148 128 74 255 156 311 203 53 44 62 68 86 234 13 83 16
302 20 1278 2 647 1 1176 -4 1176 -4 -1 -17 -3 -28 -6z"/>
<path d="M36204 8726 c-3 -7 -3 -503 -1 -1102 3 -1043 4 -1094 24 -1214 31
-185 39 -209 87 -255 99 -95 237 -187 471 -312 195 -105 2038 -1023 2052
-1023 16 0 43 74 60 165 13 67 16 274 20 1282 l5 1202 -1029 514 c-1166 583
-1355 675 -1480 716 -101 34 -201 47 -209 27z"/>
<path d="M41130 8615 c-11 -13 -10 -14 4 -9 9 3 16 10 16 15 0 13 -6 11 -20
-6z"/>
<path d="M31745 6319 c-4 -74 -5 -541 -2 -1039 5 -945 9 -1040 52 -1214 25
-96 34 -113 94 -168 100 -91 202 -159 406 -270 176 -96 2022 -1018 2038 -1018
15 0 51 73 67 136 25 99 30 331 30 1377 l0 1097 -1092 544 c-601 299 -1135
563 -1186 585 -142 63 -239 93 -323 98 l-77 6 -7 -134z"/>
<path d="M46152 6429 c-119 -30 -255 -95 -1389 -660 l-1103 -550 0 -1102 c0
-1054 5 -1270 31 -1372 15 -62 51 -135 66 -135 18 0 1925 954 2081 1041 216
121 380 242 422 312 20 33 55 192 71 322 13 107 25 1807 14 2023 l-7 143 -58
-2 c-33 -1 -90 -10 -128 -20z"/>
<path d="M36245 4059 c-11 -228 0 -1897 14 -2019 12 -104 28 -192 51 -280 23
-90 213 -237 510 -395 289 -154 2003 -1006 2018 -1003 23 4 59 116 73 228 10
70 13 392 13 1234 l1 1140 -525 262 c-1976 987 -1916 959 -2076 971 l-72 5 -7
-143z"/>
<path d="M41620 4171 c-141 -47 -195 -73 -1347 -647 l-1113 -554 0 -1103 c0
-1054 5 -1270 31 -1372 15 -62 51 -135 66 -135 18 0 1927 955 2082 1042 215
120 379 241 421 311 20 33 55 191 71 322 13 108 24 1922 12 2065 l-8 95 -65 2
c-48 1 -87 -5 -150 -26z"/>
<path d="M38975 77713 c-45 -12 -232 -76 -260 -88 -16 -7 -64 -28 -105 -46
-84 -36 -2068 -1026 -2087 -1041 -28 -23 50 -111 163 -183 32 -21 113 -67 179
-103 167 -90 2171 -1092 2185 -1092 12 0 1744 867 2050 1026 102 52 222 118
266 145 136 82 233 181 201 207 -23 19 -2016 1012 -2120 1056 -232 99 -395
140 -472 119z"/>
<path d="M156 40291 c-10 -63 -7 -2086 4 -2259 11 -160 41 -368 57 -382 49
-43 192 -141 288 -199 66 -39 628 -326 1249 -637 889 -445 1131 -563 1137
-551 30 52 32 151 36 1429 l4 1298 -1148 573 c-1236 617 -1439 714 -1549 745
l-72 20 -6 -37z"/>
<path d="M157 35684 c-10 -194 -7 -1766 3 -2024 11 -260 16 -317 36 -420 15
-78 27 -95 119 -165 48 -37 250 -156 375 -222 271 -143 2179 -1093 2195 -1093
1 0 8 20 14 45 23 93 31 463 31 1556 l0 1125 -1247 621 c-687 342 -1291 638
-1343 658 -52 21 -113 40 -136 42 l-41 5 -6 -128z"/>
<path d="M72185 35595 c-8 -227 -1 -2056 8 -2091 3 -11 8 -61 11 -110 4 -49
14 -124 23 -168 l16 -78 73 -58 c80 -63 245 -163 429 -260 308 -160 2155
-1080 2171 -1080 9 0 27 129 34 248 4 75 8 664 9 1307 l1 1171 -1237 617
c-681 339 -1277 632 -1325 652 -48 19 -114 41 -146 49 l-60 14 -7 -213z"/>
<path d="M78031 33704 c0 -11 3 -14 6 -6 3 7 2 16 -1 19 -3 4 -6 -2 -5 -13z"/>
<path d="M6023 33615 c0 -22 2 -30 4 -17 2 12 2 30 0 40 -3 9 -5 -1 -4 -23z"/>
<path d="M5455 32740 c3 -5 8 -10 11 -10 2 0 4 5 4 10 0 6 -5 10 -11 10 -5 0
-7 -4 -4 -10z"/>
<path d="M77366 32708 c3 -5 10 -6 15 -3 13 9 11 12 -6 12 -8 0 -12 -4 -9 -9z"/>
<path d="M77339 32683 c-13 -16 -12 -17 4 -4 9 7 17 15 17 17 0 8 -8 3 -21
-13z"/>
<path d="M77830 31327 c-70 -23 -313 -143 -1773 -870 l-948 -472 4 -1315 c2
-723 7 -1331 11 -1350 3 -19 7 -47 8 -62 2 -30 9 -33 36 -18 9 5 485 243 1057
529 572 285 1101 550 1175 588 131 68 300 162 310 173 3 3 23 17 45 30 22 13
56 37 76 53 36 28 37 30 48 130 22 191 31 681 29 1617 -1 514 -4 947 -7 961
l-6 27 -65 -21z"/>
<path d="M5865 31320 c-27 -9 -59 -20 -70 -24 -43 -17 -764 -373 -1690 -836
l-970 -485 0 -1235 c0 -1183 5 -1494 23 -1512 4 -4 28 2 52 14 114 55 2092
1044 2220 1110 159 82 417 236 442 265 17 20 23 54 39 231 13 145 23 2163 12
2352 l-8 136 -50 -16z"/>
<path d="M173 30138 c4 -1177 5 -1205 43 -1388 18 -82 25 -91 134 -173 135
-102 384 -234 1414 -749 985 -492 1100 -548 1109 -532 6 10 17 47 25 83 13 56
16 254 19 1336 l4 1271 -1208 601 c-1326 660 -1418 703 -1515 703 l-29 0 4
-1152z"/>
<path d="M72201 30184 c2 -1133 5 -1252 43 -1438 9 -44 19 -83 22 -88 9 -14
155 -123 229 -170 133 -85 315 -178 1354 -697 574 -287 1048 -518 1052 -514 5
5 16 44 26 88 16 73 17 189 21 1345 l3 1266 -1218 606 c-670 334 -1243 617
-1273 628 -117 45 -166 61 -212 66 l-48 6 1 -1098z"/>
<path d="M75413 30245 c-10 -11 -9 -13 6 -12 11 1 17 7 14 14 -6 16 -5 16 -20
-2z"/>
<path d="M74641 30244 c-1 -6 7 -18 16 -25 9 -8 14 -9 10 -2 -4 6 -4 13 0 16
5 2 3 2 -4 1 -6 -2 -14 2 -17 9 -3 8 -5 8 -5 1z"/>
<path d="M77749 26775 c-52 -18 -107 -38 -124 -45 -16 -6 -587 -289 -1268
-628 l-1238 -617 4 -1290 c4 -1280 7 -1388 37 -1419 8 -8 2062 1011 2270 1125
126 70 292 178 343 222 47 41 48 44 67 142 34 171 38 328 36 1449 -1 982 -3
1089 -17 1091 -8 2 -58 -12 -110 -30z"/>
<path d="M5805 26779 c-123 -39 -237 -94 -1438 -692 l-1228 -612 4 -1295 c3
-1084 6 -1305 18 -1355 12 -50 17 -60 34 -57 27 4 2142 1059 2285 1140 127 72
265 164 322 214 28 26 40 47 52 95 36 140 39 224 43 1411 4 1123 3 1172 -14
1171 -10 -1 -45 -10 -78 -20z"/>
<path d="M206 26743 c-10 -10 -5 -2042 6 -2178 5 -66 20 -174 33 -240 l24
-120 63 -58 c91 -84 240 -180 453 -294 162 -87 2039 -1023 2051 -1023 14 0 38
60 55 135 21 99 28 446 29 1473 l0 1042 -1067 533 c-1203 600 -1337 665 -1449
700 -83 26 -186 41 -198 30z"/>
<path d="M72235 26717 c-8 -30 -1 -2156 7 -2187 4 -14 9 -56 13 -95 3 -38 15
-108 27 -155 18 -75 25 -90 63 -127 91 -87 257 -198 445 -297 192 -102 2066
-1036 2077 -1036 16 0 41 68 59 163 14 72 17 232 21 1284 l5 1202 -1089 543
c-1431 715 -1423 711 -1576 723 -41 3 -48 1 -52 -18z"/>
<path d="M77610 22180 c-132 -42 -202 -76 -1367 -656 l-1093 -544 0 -1098 c0
-1045 5 -1277 30 -1376 16 -63 52 -136 67 -136 16 0 1866 924 2037 1017 214
117 304 177 408 272 46 42 60 63 77 114 31 93 50 231 61 442 10 203 12 1789 1
1915 l-6 75 -65 1 c-46 1 -90 -7 -150 -26z"/>
<path d="M7485 21473 c-99 -27 -282 -94 -385 -140 -228 -104 -2100 -1044
-2100 -1056 0 -39 112 -139 237 -211 123 -71 376 -200 1345 -686 l958 -480
1062 533 c585 293 1117 564 1184 601 145 81 240 152 274 202 l24 36 -23 20
c-36 29 -1940 979 -2109 1052 -238 103 -400 148 -467 129z"/>
<path d="M70404 21446 c-61 -20 -167 -59 -235 -87 -187 -79 -2159 -1069 -2159
-1083 0 -23 59 -89 118 -133 99 -74 271 -164 1360 -710 l1062 -533 1048 525
c1057 530 1298 657 1396 737 54 43 96 94 96 116 0 12 -1886 959 -2098 1053
-164 73 -353 137 -424 144 -42 4 -75 -2 -164 -29z"/>
<path d="M4735 19878 c-4 -51 -5 -529 -2 -1063 5 -1030 8 -1101 55 -1282 23
-86 46 -116 157 -201 96 -74 131 -96 300 -191 159 -89 2080 -1051 2099 -1051
14 0 40 52 56 117 24 96 30 344 30 1401 l0 1113 -1047 522 c-1338 667 -1469
727 -1605 727 l-36 0 -7 -92z"/>
<path d="M73195 19950 c-138 -36 -226 -78 -1517 -723 l-1018 -507 0 -1113 c0
-1056 6 -1304 30 -1400 16 -64 42 -117 56 -117 18 0 1942 963 2100 1051 279
156 421 271 448 363 25 86 45 232 56 406 11 177 14 1882 4 1990 l-6 65 -42 2
c-22 1 -72 -6 -111 -17z"/>
</g>
</svg>
